<svg width="40" height="40" viewBox="0 0 40 40" fill="none" xmlns="http://www.w3.org/2000/svg">
<path fill-rule="evenodd" clip-rule="evenodd" d="M10.4 18.4C10.4 17.0745 11.4745 16 12.8 16C14.1255 16 15.2 17.0745 15.2 18.4V28.8H15.2001V27.2C15.2001 25.8745 16.2746 24.8 17.6001 24.8C18.9255 24.8 20 25.8745 20 27.2C20 25.8745 21.0746 24.8 22.4 24.8C23.7255 24.8 24.8 25.8745 24.8 27.2C24.8 25.8745 25.8745 24.8 27.2 24.8C28.5255 24.8 29.6 25.8745 29.6 27.2V28.8V32.4V32.8C29.6 32.9736 29.5816 33.1429 29.5466 33.306C29.0987 37.0763 25.8908 40 22 40H18.0001C13.8027 40 10.4001 36.5974 10.4001 32.4V29.6219L10.4 29.6V18.4Z" fill="white"/>
<path fill-rule="evenodd" clip-rule="evenodd" d="M0 8.4C0 3.76081 3.76081 0 8.4 0H31.6C36.2392 0 40 3.76081 40 8.4C40 13.0392 36.2392 16.8 31.6 16.8H16.72C16.3494 14.9742 14.7352 13.6 12.8 13.6C10.8648 13.6 9.25063 14.9742 8.88002 16.8H8.4C3.76081 16.8 0 13.0392 0 8.4ZM7.88447 9.36H5.68067V10.8H7.88447C8.09223 10.8 8.26661 10.7505 8.40759 10.6514C8.54858 10.5524 8.63391 10.4343 8.66359 10.2971C8.69327 10.1524 8.69327 10.0114 8.66359 9.87429C8.63391 9.72952 8.54858 9.60762 8.40759 9.50857C8.26661 9.40952 8.09223 9.36 7.88447 9.36ZM5.68067 5.92V7.61143H7.88447C8.14418 7.61143 8.34452 7.52381 8.4855 7.34857C8.63391 7.17333 8.70811 6.97905 8.70811 6.76572C8.70811 6.55238 8.63391 6.3581 8.4855 6.18286C8.34452 6.00762 8.14418 5.92 7.88447 5.92H5.68067ZM4 12.8V4.8H7.8956C8.65246 4.8 9.27946 5.05524 9.77662 5.56571C10.1921 5.99238 10.3999 6.49905 10.3999 7.08571C10.3999 7.66476 10.1921 8.16762 9.77662 8.59429C9.70242 8.67048 9.62821 8.73905 9.55401 8.8C9.62821 8.86095 9.70242 8.92952 9.77662 9.00571C10.1921 9.43238 10.3999 9.93905 10.3999 10.5257C10.3999 11.1048 10.1921 11.6076 9.77662 12.0343C9.27946 12.5448 8.65246 12.8 7.8956 12.8H4ZM15.3502 5.92C14.8308 5.92 14.3781 6.0419 13.9923 6.28571C13.6064 6.5219 13.3245 6.82286 13.1464 7.18857C12.9757 7.54667 12.8904 7.93524 12.8904 8.35429C12.8904 8.77333 12.9757 9.16571 13.1464 9.53143C13.3245 9.88952 13.6064 10.1905 13.9923 10.4343C14.3781 10.6781 14.8308 10.8 15.3502 10.8C15.7064 10.8 16.0329 10.7429 16.3297 10.6286C16.6265 10.5143 16.8676 10.3657 17.0531 10.1829C17.2461 9.99238 17.4093 9.77524 17.5429 9.53143C17.6838 9.28762 17.7655 9.03238 17.7877 8.76571C17.8174 8.49143 17.8174 8.22095 17.7877 7.95429C17.7655 7.68 17.6838 7.42095 17.5429 7.17714C17.4093 6.93333 17.2461 6.72 17.0531 6.53714C16.8676 6.34667 16.6265 6.1981 16.3297 6.09143C16.0329 5.97714 15.7064 5.92 15.3502 5.92ZM12.2894 6.06857C12.4749 5.87048 12.6826 5.69524 12.9127 5.54286C13.1427 5.38286 13.3838 5.24952 13.6361 5.14286C13.8958 5.02857 14.1704 4.94476 14.4598 4.89143C14.7566 4.83048 15.0534 4.8 15.3502 4.8C15.9586 4.8 16.5263 4.91048 17.0531 5.13143C17.58 5.35238 18.0363 5.66476 18.4222 6.06857C18.7783 6.42667 19.0529 6.84191 19.2458 7.31429C19.4461 7.78667 19.5463 8.28191 19.5463 8.8C19.5463 9.3181 19.4461 9.81333 19.2458 10.2857C19.0529 10.7581 18.7783 11.1733 18.4222 11.5314C18.0363 11.9352 17.58 12.2476 17.0531 12.4686C16.5263 12.6895 15.9586 12.8 15.3502 12.8C14.7492 12.8 14.1852 12.6895 13.6584 12.4686C13.1316 12.2476 12.6752 11.9352 12.2894 11.5314C11.9332 11.1733 11.6549 10.7581 11.4546 10.2857C11.2617 9.81333 11.1652 9.3181 11.1652 8.8C11.1652 8.44952 11.2097 8.11048 11.2988 7.78286C11.3952 7.44762 11.5251 7.13905 11.6883 6.85714C11.8516 6.56762 12.0519 6.30476 12.2894 6.06857ZM22.9704 6.28571C23.3563 6.0419 23.8089 5.92 24.3283 5.92C24.6845 5.92 25.011 5.97714 25.3078 6.09143C25.6046 6.1981 25.8458 6.34667 26.0313 6.53714C26.2242 6.72 26.3874 6.93333 26.521 7.17714C26.662 7.42095 26.7436 7.68 26.7659 7.95429C26.7955 8.22095 26.7955 8.49143 26.7659 8.76571C26.7436 9.03238 26.662 9.28762 26.521 9.53143C26.3874 9.77524 26.2242 9.99238 26.0313 10.1829C25.8458 10.3657 25.6046 10.5143 25.3078 10.6286C25.011 10.7429 24.6845 10.8 24.3283 10.8C23.8089 10.8 23.3563 10.6781 22.9704 10.4343C22.5846 10.1905 22.3026 9.88952 22.1245 9.53143C21.9539 9.16571 21.8685 8.77333 21.8685 8.35429C21.8685 7.93524 21.9539 7.54667 22.1245 7.18857C22.3026 6.82286 22.5846 6.5219 22.9704 6.28571ZM21.8908 5.54286C21.6608 5.69524 21.453 5.87048 21.2675 6.06857C21.0301 6.30476 20.8297 6.56762 20.6665 6.85714C20.5032 7.13905 20.3734 7.44762 20.2769 7.78286C20.1879 8.11048 20.1433 8.44952 20.1433 8.8C20.1433 9.3181 20.2398 9.81333 20.4327 10.2857C20.6331 10.7581 20.9113 11.1733 21.2675 11.5314C21.6534 11.9352 22.1097 12.2476 22.6365 12.4686C23.1634 12.6895 23.7273 12.8 24.3283 12.8C24.9368 12.8 25.5044 12.6895 26.0313 12.4686C26.5581 12.2476 27.0144 11.9352 27.4003 11.5314C27.7565 11.1733 28.031 10.7581 28.2239 10.2857C28.4243 9.81333 28.5244 9.3181 28.5244 8.8C28.5244 8.28191 28.4243 7.78667 28.2239 7.31429C28.031 6.84191 27.7565 6.42667 27.4003 6.06857C27.0144 5.66476 26.5581 5.35238 26.0313 5.13143C25.5044 4.91048 24.9368 4.8 24.3283 4.8C24.0315 4.8 23.7347 4.83048 23.4379 4.89143C23.1485 4.94476 22.874 5.02857 22.6143 5.14286C22.362 5.24952 22.1208 5.38286 21.8908 5.54286ZM33.8964 4.8H35.7885L32.75 8.64L36 12.8H33.3065L31.47 10.2743L31.1695 10.6514V12.8H29.4888V4.8H31.1695V8.26286L33.8964 4.8Z" fill="white"/>
</svg>
