<svg width="34" height="26" viewBox="0 0 34 26" fill="none" xmlns="http://www.w3.org/2000/svg">
<path d="M33.3687 6.88072C33.5487 6.9527 33.6667 7.127 33.6667 7.32083V23.6666C33.6667 24.587 32.9205 25.3332 32 25.3332C31.0796 25.3332 30.3334 24.587 30.3334 23.6666V11.7618C30.3334 10.9728 29.6938 10.3332 28.9048 10.3332H5.09528C4.3063 10.3332 3.66671 10.9728 3.66671 11.7618V23.6666C3.66671 24.587 2.92052 25.3332 2.00004 25.3332C1.07957 25.3332 0.333374 24.587 0.333374 23.6666V7.32083C0.333374 7.127 0.451379 6.9527 0.631342 6.88072L16.2573 0.630351C16.7341 0.439622 17.266 0.439623 17.7428 0.630352L33.3687 6.88072ZM28.6667 13.6666C28.6667 12.7461 27.9205 11.9999 27 11.9999H7.00004C6.07957 11.9999 5.33337 12.7461 5.33337 13.6666C5.33337 14.587 6.07957 15.3332 7.00004 15.3332H27C27.9205 15.3332 28.6667 14.587 28.6667 13.6666ZM28.6667 23.6666C28.6667 22.7461 27.9205 21.9999 27 21.9999H7.00004C6.07957 21.9999 5.33337 22.7461 5.33337 23.6666C5.33337 24.587 6.07957 25.3332 7.00004 25.3332H27C27.9205 25.3332 28.6667 24.587 28.6667 23.6666ZM28.6667 18.6666C28.6667 17.7461 27.9205 16.9999 27 16.9999H7.00004C6.07957 16.9999 5.33337 17.7461 5.33337 18.6666C5.33337 19.587 6.07957 20.3332 7.00004 20.3332H27C27.9205 20.3332 28.6667 19.587 28.6667 18.6666Z" fill="white"/>
</svg>
