<svg width="40" height="40" viewBox="0 0 40 40" fill="none" xmlns="http://www.w3.org/2000/svg">
<path d="M20 0C23.6285 0 26.9748 0.894097 30.0391 2.68229C33.1033 4.47049 35.5295 6.8967 37.3177 9.96094C39.1059 13.0252 40 16.3715 40 20C40 23.6285 39.1059 26.9748 37.3177 30.0391C35.5295 33.1033 33.1033 35.5295 30.0391 37.3177C26.9748 39.1059 23.6285 40 20 40C16.3715 40 13.0252 39.1059 9.96094 37.3177C6.8967 35.5295 4.47049 33.1033 2.68229 30.0391C0.894097 26.9748 0 23.6285 0 20C0 16.3715 0.894097 13.0252 2.68229 9.96094C4.47049 6.8967 6.8967 4.47049 9.96094 2.68229C13.0252 0.894097 16.3715 0 20 0ZM27.1354 13.5677C27.1007 13.5851 27.0182 13.6675 26.888 13.8151C26.7578 13.9627 26.6406 14.0451 26.5365 14.0625C26.5712 14.0625 26.6102 14.0191 26.6536 13.9323C26.697 13.8455 26.7404 13.75 26.7839 13.6458C26.8273 13.5417 26.8576 13.4809 26.875 13.4635C26.9792 13.342 27.1701 13.2118 27.4479 13.0729C27.691 12.9688 28.1424 12.8646 28.8021 12.7604C29.3924 12.6215 29.8351 12.717 30.1302 13.0469C30.0955 13.0122 30.1779 12.8993 30.3776 12.7083C30.5773 12.5174 30.7031 12.4132 30.7552 12.3958C30.8073 12.3611 30.9375 12.322 31.1458 12.2786C31.3542 12.2352 31.4844 12.1701 31.5365 12.0833L31.5885 11.5104C31.3802 11.5278 31.2283 11.467 31.1328 11.3281C31.0373 11.1892 30.9809 11.0069 30.9635 10.7812C30.9635 10.816 30.9115 10.8854 30.8073 10.9896C30.8073 10.8681 30.7682 10.7986 30.6901 10.7812C30.612 10.7639 30.5122 10.7726 30.3906 10.8073C30.2691 10.842 30.191 10.8507 30.1562 10.8333C29.9826 10.7812 29.8524 10.7161 29.7656 10.638C29.6788 10.5599 29.6094 10.4167 29.5573 10.2083C29.5052 10 29.4705 9.86979 29.4531 9.81771C29.4184 9.7309 29.3359 9.63542 29.2057 9.53125C29.0755 9.42708 28.9931 9.34028 28.9583 9.27083C28.941 9.23611 28.9193 9.18837 28.8932 9.1276C28.8672 9.06684 28.8411 9.01042 28.8151 8.95833C28.7891 8.90625 28.7543 8.85851 28.7109 8.8151C28.6675 8.7717 28.6198 8.75 28.5677 8.75C28.5156 8.75 28.4549 8.7934 28.3854 8.88021C28.316 8.96701 28.2509 9.05382 28.1901 9.14062C28.1293 9.22743 28.0903 9.27083 28.0729 9.27083C28.0208 9.23611 27.9688 9.22309 27.9167 9.23177C27.8646 9.24045 27.8255 9.24913 27.7995 9.25781C27.7734 9.26649 27.7344 9.29253 27.6823 9.33594C27.6302 9.37934 27.5868 9.40972 27.5521 9.42708C27.5 9.46181 27.4262 9.48785 27.3307 9.50521C27.2352 9.52257 27.1615 9.53993 27.1094 9.55729C27.3698 9.47049 27.3611 9.375 27.0833 9.27083C26.9097 9.20139 26.7708 9.17535 26.6667 9.19271C26.8229 9.12326 26.888 9.0191 26.862 8.88021C26.8359 8.74132 26.7622 8.61979 26.6406 8.51562H26.7708C26.7535 8.44618 26.6797 8.3724 26.5495 8.29427C26.4193 8.21615 26.2674 8.14236 26.0938 8.07292C25.9201 8.00347 25.8073 7.95139 25.7552 7.91667C25.6163 7.82986 25.3212 7.7474 24.8698 7.66927C24.4184 7.59115 24.1319 7.58681 24.0104 7.65625C23.9236 7.76042 23.8845 7.85156 23.8932 7.92969C23.9019 8.00781 23.9366 8.12934 23.9974 8.29427C24.0582 8.4592 24.0885 8.56771 24.0885 8.61979C24.1059 8.72396 24.0582 8.83681 23.9453 8.95833C23.8325 9.07986 23.776 9.18403 23.776 9.27083C23.776 9.39236 23.8976 9.52691 24.1406 9.67448C24.3837 9.82205 24.4705 10.0087 24.401 10.2344C24.349 10.3733 24.2101 10.5122 23.9844 10.651C23.7587 10.7899 23.6198 10.8941 23.5677 10.9635C23.4809 11.1024 23.4679 11.263 23.5286 11.4453C23.5894 11.6276 23.6806 11.7708 23.8021 11.875C23.8368 11.9097 23.8498 11.9444 23.8411 11.9792C23.8325 12.0139 23.8021 12.053 23.75 12.0964C23.6979 12.1398 23.6502 12.1745 23.6068 12.2005C23.5634 12.2266 23.5069 12.2569 23.4375 12.2917L23.3594 12.3438C23.1684 12.4306 22.9904 12.3785 22.8255 12.1875C22.6606 11.9965 22.5434 11.7708 22.474 11.5104C22.3524 11.0764 22.2135 10.816 22.0573 10.7292C21.658 10.5903 21.4062 10.599 21.3021 10.7552C21.2153 10.5295 20.8594 10.3038 20.2344 10.0781C19.8003 9.92188 19.2969 9.88715 18.724 9.97396C18.8281 9.9566 18.8281 9.82639 18.724 9.58333C18.6024 9.32292 18.4375 9.21875 18.2292 9.27083C18.2812 9.16667 18.316 9.01476 18.3333 8.8151C18.3507 8.61545 18.3594 8.49826 18.3594 8.46354C18.4115 8.23785 18.5156 8.03819 18.6719 7.86458C18.6892 7.84722 18.75 7.77344 18.8542 7.64323C18.9583 7.51302 19.0408 7.39583 19.1016 7.29167C19.1623 7.1875 19.1667 7.13542 19.1146 7.13542C19.7222 7.20486 20.1562 7.10938 20.4167 6.84896C20.5035 6.76215 20.6033 6.61458 20.7161 6.40625C20.829 6.19792 20.9201 6.05035 20.9896 5.96354C21.1458 5.85938 21.2674 5.81163 21.3542 5.82031C21.441 5.82899 21.5668 5.87674 21.7318 5.96354C21.8967 6.05035 22.0226 6.09375 22.1094 6.09375C22.3524 6.11111 22.487 6.01562 22.513 5.80729C22.5391 5.59896 22.474 5.42535 22.3177 5.28646C22.526 5.30382 22.5521 5.15625 22.3958 4.84375C22.3264 4.72222 22.2569 4.6441 22.1875 4.60938C21.9792 4.53993 21.7448 4.58333 21.4844 4.73958C21.3455 4.80903 21.3628 4.87847 21.5365 4.94792C21.5191 4.93056 21.4366 5.0217 21.2891 5.22135C21.1415 5.42101 20.9983 5.57292 20.8594 5.67708C20.7205 5.78125 20.5816 5.73785 20.4427 5.54688C20.4253 5.52951 20.3776 5.41233 20.2995 5.19531C20.2214 4.9783 20.1389 4.86111 20.0521 4.84375C19.9132 4.84375 19.7743 4.97396 19.6354 5.23438C19.6875 5.09549 19.592 4.96528 19.349 4.84375C19.1059 4.72222 18.8976 4.65278 18.724 4.63542C19.0538 4.42708 18.9844 4.19271 18.5156 3.93229C18.3941 3.86285 18.2161 3.81944 17.9818 3.80208C17.7474 3.78472 17.5781 3.81944 17.474 3.90625C17.3872 4.02778 17.3394 4.1276 17.3307 4.20573C17.322 4.28385 17.3655 4.3533 17.4609 4.41406C17.5564 4.47483 17.6476 4.52257 17.7344 4.55729C17.8212 4.59201 17.921 4.62674 18.0339 4.66146C18.1467 4.69618 18.2205 4.72222 18.2552 4.73958C18.4983 4.91319 18.5677 5.03472 18.4635 5.10417C18.4288 5.12153 18.355 5.15191 18.2422 5.19531C18.1293 5.23872 18.0295 5.27778 17.9427 5.3125C17.8559 5.34722 17.8038 5.38194 17.7865 5.41667C17.7344 5.48611 17.7344 5.60764 17.7865 5.78125C17.8385 5.95486 17.8212 6.07639 17.7344 6.14583C17.6476 6.05903 17.5694 5.90712 17.5 5.6901C17.4306 5.47309 17.3698 5.32986 17.3177 5.26042C17.4392 5.41667 17.2222 5.46875 16.6667 5.41667L16.4062 5.39062C16.3368 5.39062 16.1979 5.40799 15.9896 5.44271C15.7812 5.47743 15.6033 5.48611 15.4557 5.46875C15.3082 5.45139 15.191 5.38194 15.1042 5.26042C15.0347 5.12153 15.0347 4.94792 15.1042 4.73958C15.1215 4.67014 15.1562 4.65278 15.2083 4.6875C15.1389 4.63542 15.0434 4.55295 14.9219 4.4401C14.8003 4.32726 14.7135 4.25347 14.6615 4.21875C13.8628 4.47917 13.0469 4.83507 12.2135 5.28646C12.3177 5.30382 12.4219 5.29514 12.526 5.26042C12.6128 5.22569 12.7257 5.16927 12.8646 5.09115C13.0035 5.01302 13.0903 4.96528 13.125 4.94792C13.7153 4.70486 14.0799 4.6441 14.2188 4.76562L14.349 4.63542C14.592 4.91319 14.7656 5.13021 14.8698 5.28646C14.7483 5.21701 14.4878 5.20833 14.0885 5.26042C13.7413 5.36458 13.5503 5.46875 13.5156 5.57292C13.6372 5.78125 13.6806 5.9375 13.6458 6.04167C13.5764 5.98958 13.4766 5.90278 13.3464 5.78125C13.2161 5.65972 13.0903 5.56424 12.9688 5.49479C12.8472 5.42535 12.717 5.38194 12.5781 5.36458C12.3003 5.36458 12.1094 5.37326 12.0052 5.39062C9.47049 6.77951 7.43056 8.7066 5.88542 11.1719C6.00694 11.2934 6.11111 11.3628 6.19792 11.3802C6.26736 11.3976 6.31076 11.4757 6.32812 11.6146C6.34549 11.7535 6.36719 11.849 6.39323 11.901C6.41927 11.9531 6.5191 11.9271 6.69271 11.8229C6.84896 11.9618 6.875 12.1267 6.77083 12.3177C6.78819 12.3003 7.17014 12.5347 7.91667 13.0208C8.24653 13.316 8.42882 13.4983 8.46354 13.5677C8.51562 13.7587 8.42882 13.9149 8.20312 14.0365C8.18576 14.0017 8.10764 13.9236 7.96875 13.8021C7.82986 13.6806 7.75174 13.6458 7.73438 13.6979C7.68229 13.7847 7.68663 13.9453 7.7474 14.1797C7.80816 14.4141 7.89931 14.5226 8.02083 14.5052C7.89931 14.5052 7.81684 14.6441 7.77344 14.9219C7.73003 15.1997 7.70833 15.5078 7.70833 15.8464C7.70833 16.1849 7.69965 16.3889 7.68229 16.4583L7.73438 16.4844C7.68229 16.6927 7.73003 16.9922 7.8776 17.3828C8.02517 17.7734 8.21181 17.9427 8.4375 17.8906C8.21181 17.9427 8.38542 18.316 8.95833 19.0104C9.0625 19.1493 9.13194 19.2274 9.16667 19.2448C9.21875 19.2795 9.32292 19.3446 9.47917 19.4401C9.63542 19.5356 9.76562 19.6224 9.86979 19.7005C9.97396 19.7786 10.0608 19.8698 10.1302 19.974C10.1997 20.0608 10.2865 20.2561 10.3906 20.5599C10.4948 20.8637 10.6163 21.0677 10.7552 21.1719C10.7205 21.276 10.803 21.4497 11.0026 21.6927C11.2023 21.9358 11.2934 22.1354 11.276 22.2917C11.2587 22.2917 11.237 22.3003 11.2109 22.3177C11.1849 22.3351 11.1632 22.3438 11.1458 22.3438C11.1979 22.4653 11.3325 22.5868 11.5495 22.7083C11.7665 22.8299 11.901 22.9427 11.9531 23.0469C11.9705 23.099 11.9878 23.1858 12.0052 23.3073C12.0226 23.4288 12.0486 23.5243 12.0833 23.5938C12.1181 23.6632 12.1875 23.6806 12.2917 23.6458C12.3264 23.2986 12.1181 22.7604 11.6667 22.0312C11.4062 21.5972 11.2587 21.3455 11.224 21.276C11.1719 21.1892 11.1241 21.0547 11.0807 20.8724C11.0373 20.6901 10.9983 20.5642 10.9635 20.4948C10.9983 20.4948 11.0503 20.5078 11.1198 20.5339C11.1892 20.5599 11.263 20.5903 11.3411 20.625C11.4193 20.6597 11.4844 20.6944 11.5365 20.7292C11.5885 20.7639 11.6059 20.7899 11.5885 20.8073C11.5365 20.9288 11.5538 21.0807 11.6406 21.263C11.7274 21.4453 11.8316 21.6059 11.9531 21.7448C12.0747 21.8837 12.2222 22.0486 12.3958 22.2396C12.5694 22.4306 12.6736 22.5434 12.7083 22.5781C12.8125 22.6823 12.934 22.8516 13.0729 23.0859C13.2118 23.3203 13.2118 23.4375 13.0729 23.4375C13.2292 23.4375 13.4028 23.5286 13.5938 23.7109C13.7847 23.8932 13.9323 24.0625 14.0365 24.2188C14.1233 24.3576 14.1927 24.5833 14.2448 24.8958C14.2969 25.2083 14.3403 25.4167 14.375 25.5208C14.4097 25.6424 14.4835 25.7595 14.5964 25.8724C14.7092 25.9852 14.8177 26.0677 14.9219 26.1198L15.3385 26.3281L15.6771 26.5104C15.7639 26.5451 15.9245 26.6363 16.1589 26.7839C16.3932 26.9314 16.5799 27.0312 16.7188 27.0833C16.8924 27.1528 17.0312 27.1875 17.1354 27.1875C17.2396 27.1875 17.3655 27.1658 17.513 27.1224C17.6606 27.079 17.7778 27.0486 17.8646 27.0312C18.125 26.9965 18.3767 27.1267 18.6198 27.4219C18.8628 27.717 19.0451 27.8993 19.1667 27.9688C19.7917 28.2986 20.2691 28.3941 20.599 28.2552C20.5642 28.2726 20.5686 28.3377 20.612 28.4505C20.6554 28.5634 20.7248 28.6979 20.8203 28.8542C20.9158 29.0104 20.9939 29.1363 21.0547 29.2318C21.1155 29.3273 21.1632 29.401 21.1979 29.4531C21.2847 29.5573 21.441 29.6875 21.6667 29.8438C21.8924 30 22.0486 30.1302 22.1354 30.2344C22.2396 30.1649 22.3003 30.0868 22.3177 30C22.2656 30.1389 22.3264 30.3125 22.5 30.5208C22.6736 30.7292 22.8299 30.816 22.9688 30.7812C23.2118 30.7292 23.3333 30.4514 23.3333 29.9479C22.7951 30.2083 22.3698 30.0521 22.0573 29.4792C22.0573 29.4618 22.0356 29.4141 21.9922 29.3359C21.9488 29.2578 21.9141 29.184 21.888 29.1146C21.862 29.0451 21.8403 28.9714 21.8229 28.8932C21.8056 28.8151 21.8056 28.75 21.8229 28.6979C21.8403 28.6458 21.8837 28.6198 21.9531 28.6198C22.1094 28.6198 22.1962 28.5894 22.2135 28.5286C22.2309 28.4679 22.2135 28.3594 22.1615 28.2031C22.1094 28.0469 22.0747 27.934 22.0573 27.8646C22.0399 27.7257 21.9444 27.5521 21.7708 27.3438C21.5972 27.1354 21.4931 27.0052 21.4583 26.9531C21.3715 27.1094 21.2326 27.1788 21.0417 27.1615C20.8507 27.1441 20.7118 27.066 20.625 26.9271C20.625 26.9444 20.612 26.9922 20.5859 27.0703C20.5599 27.1484 20.5469 27.2049 20.5469 27.2396C20.3212 27.2396 20.191 27.2309 20.1562 27.2135C20.1736 27.1615 20.1953 27.0095 20.2214 26.7578C20.2474 26.5061 20.2778 26.3108 20.3125 26.1719C20.3299 26.1024 20.3776 25.9983 20.4557 25.8594C20.5339 25.7205 20.599 25.5946 20.651 25.4818C20.7031 25.3689 20.7378 25.2604 20.7552 25.1562C20.7726 25.0521 20.7335 24.9696 20.638 24.9089C20.5425 24.8481 20.3906 24.8264 20.1823 24.8438C19.8524 24.8611 19.6267 25.0347 19.5052 25.3646C19.4878 25.4167 19.4618 25.5078 19.4271 25.638C19.3924 25.7682 19.349 25.8681 19.2969 25.9375C19.2448 26.0069 19.1667 26.0677 19.0625 26.1198C18.941 26.1719 18.7326 26.1892 18.4375 26.1719C18.1424 26.1545 17.934 26.1111 17.8125 26.0417C17.5868 25.9028 17.3915 25.651 17.2266 25.2865C17.0616 24.9219 16.9792 24.6007 16.9792 24.3229C16.9792 24.1493 17.0009 23.9193 17.0443 23.6328C17.0877 23.3464 17.1137 23.1293 17.1224 22.9818C17.1311 22.8342 17.0833 22.6215 16.9792 22.3438C17.0312 22.309 17.1094 22.2266 17.2135 22.0964C17.3177 21.9661 17.4045 21.875 17.474 21.8229C17.5087 21.8056 17.5477 21.7925 17.5911 21.7839C17.6345 21.7752 17.6736 21.7752 17.7083 21.7839C17.7431 21.7925 17.7778 21.7795 17.8125 21.7448C17.8472 21.7101 17.8733 21.658 17.8906 21.5885C17.8733 21.5712 17.8385 21.5451 17.7865 21.5104C17.7344 21.4583 17.6997 21.4323 17.6823 21.4323C17.8038 21.4844 18.0512 21.4714 18.4245 21.3932C18.7977 21.3151 19.0365 21.3281 19.1406 21.4323C19.401 21.6233 19.592 21.6059 19.7135 21.3802C19.7135 21.3628 19.6918 21.2804 19.6484 21.1328C19.605 20.9852 19.6007 20.8681 19.6354 20.7812C19.7222 21.25 19.974 21.3281 20.3906 21.0156C20.4427 21.0677 20.5773 21.1111 20.7943 21.1458C21.0113 21.1806 21.1632 21.224 21.25 21.276C21.3021 21.3108 21.3628 21.3585 21.4323 21.4193C21.5017 21.48 21.5495 21.5191 21.5755 21.5365C21.6016 21.5538 21.645 21.5495 21.7057 21.5234C21.7665 21.4974 21.8403 21.441 21.9271 21.3542C22.1007 21.5972 22.2049 21.8056 22.2396 21.9792C22.4306 22.6736 22.5955 23.0556 22.7344 23.125C22.8559 23.1771 22.9514 23.1944 23.0208 23.1771C23.0903 23.1597 23.1293 23.0773 23.138 22.9297C23.1467 22.7821 23.1467 22.6606 23.138 22.5651C23.1293 22.4696 23.1163 22.3611 23.099 22.2396L23.0729 22.0312V21.5625L23.0469 21.3542C22.7865 21.3021 22.6259 21.1979 22.5651 21.0417C22.5043 20.8854 22.5174 20.7248 22.6042 20.5599C22.691 20.395 22.8212 20.2344 22.9948 20.0781C23.0122 20.0608 23.0816 20.0304 23.2031 19.987C23.3247 19.9436 23.4592 19.8872 23.6068 19.8177C23.7543 19.7483 23.8628 19.6788 23.9323 19.6094C24.2969 19.2795 24.4271 18.9757 24.3229 18.6979C24.4444 18.6979 24.5399 18.6198 24.6094 18.4635C24.592 18.4635 24.5486 18.4375 24.4792 18.3854C24.4097 18.3333 24.3446 18.2899 24.2839 18.2552C24.2231 18.2205 24.184 18.2031 24.1667 18.2031C24.3229 18.1163 24.3403 17.9774 24.2188 17.7865C24.3056 17.7344 24.3707 17.6389 24.4141 17.5C24.4575 17.3611 24.5226 17.2743 24.6094 17.2396C24.7656 17.4479 24.9479 17.4653 25.1562 17.2917C25.2951 17.1528 25.3038 17.0139 25.1823 16.875C25.2691 16.7535 25.447 16.6623 25.7161 16.6016C25.9852 16.5408 26.1458 16.4583 26.1979 16.3542C26.3194 16.3889 26.3889 16.3715 26.4062 16.3021C26.4236 16.2326 26.4323 16.1285 26.4323 15.9896C26.4323 15.8507 26.4583 15.7465 26.5104 15.6771C26.5799 15.5903 26.7101 15.5122 26.901 15.4427C27.092 15.3733 27.2049 15.3299 27.2396 15.3125L27.6823 15.026C27.7344 14.9566 27.7344 14.9219 27.6823 14.9219C27.9948 14.9566 28.2639 14.8611 28.4896 14.6354C28.6632 14.4444 28.6111 14.2708 28.3333 14.1146C28.3854 14.0104 28.3594 13.928 28.2552 13.8672C28.151 13.8064 28.0208 13.7587 27.8646 13.724C27.9167 13.7066 28.0165 13.7023 28.1641 13.7109C28.3116 13.7196 28.4028 13.7066 28.4375 13.6719C28.6979 13.4983 28.6372 13.3594 28.2552 13.2552C27.9601 13.1684 27.5868 13.2726 27.1354 13.5677ZM22.8906 36.4062C26.467 35.7812 29.5139 34.1406 32.0312 31.4844C31.9792 31.4323 31.8707 31.3932 31.7057 31.3672C31.5408 31.3411 31.4323 31.3108 31.3802 31.276C31.0677 31.1545 30.8594 31.0851 30.7552 31.0677C30.7726 30.9462 30.7509 30.8333 30.6901 30.7292C30.6293 30.625 30.5599 30.5469 30.4818 30.4948C30.4036 30.4427 30.2951 30.3733 30.1562 30.2865C30.0174 30.1997 29.9219 30.1389 29.8698 30.1042C29.8351 30.0694 29.7743 30.0174 29.6875 29.9479C29.6007 29.8785 29.5399 29.8307 29.5052 29.8047C29.4705 29.7786 29.4054 29.7396 29.3099 29.6875C29.2144 29.6354 29.1406 29.6181 29.0885 29.6354C29.0365 29.6528 28.9497 29.6615 28.8281 29.6615L28.75 29.6875C28.6979 29.7049 28.6502 29.7266 28.6068 29.7526C28.5634 29.7786 28.5156 29.8047 28.4635 29.8307C28.4115 29.8568 28.3767 29.8828 28.3594 29.9089C28.342 29.9349 28.342 29.9566 28.3594 29.974C27.9948 29.6788 27.6823 29.4878 27.4219 29.401C27.3351 29.3837 27.2396 29.3359 27.1354 29.2578C27.0312 29.1797 26.9401 29.1189 26.862 29.0755C26.7839 29.0321 26.697 29.0191 26.6016 29.0365C26.5061 29.0538 26.4062 29.1146 26.3021 29.2188C26.2153 29.3056 26.1632 29.4358 26.1458 29.6094C26.1285 29.783 26.1111 29.8958 26.0938 29.9479C25.9722 29.8611 25.9722 29.7092 26.0938 29.4922C26.2153 29.2752 26.2326 29.1146 26.1458 29.0104C26.0938 28.9062 26.0026 28.8672 25.8724 28.8932C25.7422 28.9193 25.638 28.9583 25.5599 29.0104C25.4818 29.0625 25.3819 29.1363 25.2604 29.2318C25.1389 29.3273 25.0608 29.3837 25.026 29.401C24.9913 29.4184 24.9175 29.4661 24.8047 29.5443C24.6918 29.6224 24.6181 29.6875 24.5833 29.7396C24.5312 29.809 24.4792 29.9132 24.4271 30.0521C24.375 30.191 24.3316 30.2865 24.2969 30.3385C24.2622 30.2691 24.1623 30.2127 23.9974 30.1693C23.8325 30.1259 23.75 30.0781 23.75 30.026C23.7847 30.1997 23.8194 30.5035 23.8542 30.9375C23.8889 31.3715 23.9323 31.7014 23.9844 31.9271C24.1059 32.4653 24.0017 32.8819 23.6719 33.1771C23.2031 33.6111 22.9514 33.9583 22.9167 34.2188C22.8472 34.6007 22.9514 34.8264 23.2292 34.8958C23.2292 35.0174 23.1597 35.1953 23.0208 35.4297C22.8819 35.6641 22.8212 35.8507 22.8385 35.9896C22.8385 36.0938 22.8559 36.2326 22.8906 36.4062Z" fill="white"/>
</svg>
