<svg width="48" height="41" viewBox="0 0 48 41" fill="none" xmlns="http://www.w3.org/2000/svg">
<path opacity="0.7" fill-rule="evenodd" clip-rule="evenodd" d="M24 31C30.6274 31 36 25.6274 36 19C36 12.3726 30.6274 7 24 7C17.3726 7 12 12.3726 12 19C12 19 12 23.5 15 27L13.7474 31.3843C13.4918 32.2788 14.4894 33.0071 15.2636 32.491L19 30C21.5 31 24 31 24 31ZM19 20.314C19.8284 20.314 20.5 19.6423 20.5 18.814C20.5 17.9856 19.8284 17.314 19 17.314C18.1716 17.314 17.5 17.9856 17.5 18.814C17.5 19.6423 18.1716 20.314 19 20.314ZM24 20.314C24.8284 20.314 25.5 19.6423 25.5 18.814C25.5 17.9856 24.8284 17.314 24 17.314C23.1716 17.314 22.5 17.9856 22.5 18.814C22.5 19.6423 23.1716 20.314 24 20.314ZM30.5 18.814C30.5 19.6423 29.8284 20.314 29 20.314C28.1716 20.314 27.5 19.6423 27.5 18.814C27.5 17.9856 28.1716 17.314 29 17.314C29.8284 17.314 30.5 17.9856 30.5 18.814Z" fill="white"/>
<path fill-rule="evenodd" clip-rule="evenodd" d="M33.504 2.54785C29.8827 0.455892 25.6723 -0.382801 21.5257 0.161824C17.3792 0.706449 13.5282 2.60396 10.5699 5.56011C8.722 7.40663 7.28694 9.60176 6.33648 12H3.5C1.567 12 0 13.567 0 15.5V24.5C0 26.433 1.567 28 3.5 28L7.5 28C8.40096 27.7424 8.81781 26.7058 8.44032 25.8482C7.19105 23.0097 6.73723 19.8716 7.14639 16.7739C7.63638 13.0642 9.33666 9.61982 11.9836 6.97484C14.6305 4.32986 18.0761 2.63209 21.7862 2.14479C25.4962 1.6575 29.2634 2.40791 32.5036 4.27965C35.7437 6.1514 38.2758 9.03991 39.7071 12.4973C41.1385 15.9546 41.3891 19.7876 40.4202 23.4019C39.4513 27.0162 37.3169 30.2099 34.3481 32.4877C32.3842 33.9945 30.1276 35.0448 27.7418 35.5831C27.1698 34.0733 25.7102 33 24 33C21.7909 33 20 34.7909 20 37C20 39.2091 21.7909 41 24 41C26.011 41 27.6754 39.5159 27.9578 37.5833C30.7071 36.9977 33.3091 35.8056 35.5656 34.0744C37.7116 32.4279 39.4675 30.3532 40.7332 28H44.5C46.433 28 48 26.433 48 24.5V15.5C48 13.567 46.433 12 44.5 12H41.6635C41.6281 11.9105 41.5919 11.8213 41.555 11.7322C39.9553 7.86813 37.1253 4.6398 33.504 2.54785Z" fill="white"/>
</svg>
