<svg width="22" height="23" viewBox="0 0 22 23" fill="none" xmlns="http://www.w3.org/2000/svg">
<path d="M2 16C2 11.5817 5.58172 8 10 8H12C16.4183 8 20 11.5817 20 16H20.5C20.7761 16 21 16.2239 21 16.5C21 16.7761 20.7761 17 20.5 17H1.5C1.22386 17 1 16.7761 1 16.5C1 16.2239 1.22386 16 1.5 16H2Z" fill="white"/>
<path d="M10 7H12V8H10V7Z" fill="white"/>
<path d="M9 6C9 5.44772 9.44772 5 10 5H12C12.5523 5 13 5.44772 13 6C13 6.55228 12.5523 7 12 7H10C9.44772 7 9 6.55228 9 6Z" fill="white"/>
<path fill-rule="evenodd" clip-rule="evenodd" d="M11 0C11.5523 0 12 0.447715 12 1V3C12 3.55228 11.5523 4 11 4C10.4477 4 10 3.55228 10 3V1C10 0.447715 10.4477 0 11 0Z" fill="white"/>
<path fill-rule="evenodd" clip-rule="evenodd" d="M1.58583 2.29289C1.97635 1.90237 2.60952 1.90237 3.00004 2.29289L4.41426 3.70711C4.80478 4.09763 4.80478 4.7308 4.41426 5.12132C4.02373 5.51184 3.39057 5.51184 3.00004 5.12132L1.58583 3.70711C1.19531 3.31658 1.19531 2.68342 1.58583 2.29289Z" fill="white"/>
<path fill-rule="evenodd" clip-rule="evenodd" d="M20.4143 2.29292C20.8048 2.68345 20.8048 3.31661 20.4143 3.70714L19 5.12135C18.6095 5.51187 17.9764 5.51187 17.5858 5.12135C17.1953 4.73082 17.1953 4.09766 17.5858 3.70714L19 2.29292C19.3906 1.9024 20.0237 1.9024 20.4143 2.29292Z" fill="white"/>
<path d="M1.00002 21C1.50002 21 2.00002 20.5 2.00002 20H10C10 19.4477 10.4477 19 11 19C11.5523 19 12 19.4477 12 20H20C20 20.5 20.5 21 21 21L21.2764 21.5528C21.6089 22.2177 21.1254 23 20.382 23H1.61805C0.874669 23 0.391173 22.2177 0.723623 21.5528L1.00002 21Z" fill="white"/>
</svg>
