<svg width="34" height="34" viewBox="0 0 34 34" fill="none" xmlns="http://www.w3.org/2000/svg">
<path d="M25.4003 2.45097C27.9342 3.91401 30.0421 6.01345 31.5152 8.54147C32.9884 11.0695 33.7758 13.9384 33.7994 16.8643C33.823 19.7901 33.0821 22.6714 31.65 25.2229C30.2178 27.7743 28.1441 29.9076 25.6342 31.4113C23.1242 32.9151 20.2651 33.7373 17.3397 33.7965C14.4143 33.8557 11.5242 33.1499 8.95547 31.7489C6.38673 30.3479 4.22842 28.3003 2.69422 25.8089C1.16002 23.3174 0.30312 20.4685 0.208351 17.5441L0.199951 16.9998L0.208351 16.4554C0.302438 13.5541 1.14672 10.7266 2.6589 8.24864C4.17107 5.77069 6.29952 3.72685 8.83676 2.31637C11.374 0.905896 14.2334 0.176917 17.1362 0.200506C20.0391 0.224095 22.8863 0.999446 25.4003 2.45097ZM22.0402 18.6798H11.9601C11.5145 18.6798 11.0872 18.8568 10.7721 19.1718C10.4571 19.4869 10.2801 19.9142 10.2801 20.3598V20.4438C10.2801 22.1573 10.9388 23.8052 12.1199 25.0466C13.301 26.2881 14.9141 27.028 16.6255 27.1134L17.0069 27.1218C18.7236 27.1094 20.3715 26.4446 21.6162 25.2622C22.861 24.0799 23.6096 22.4684 23.7102 20.7546L23.7202 20.4085C23.7268 20.1838 23.6881 19.9601 23.6066 19.7506C23.5251 19.5411 23.4024 19.3501 23.2457 19.1889C23.0891 19.0277 22.9017 18.8996 22.6946 18.8121C22.4875 18.7247 22.265 18.6797 22.0402 18.6798ZM11.9769 10.2798L11.7635 10.2915C11.3383 10.3421 10.9485 10.5531 10.6736 10.8815C10.3988 11.2099 10.2597 11.6308 10.2848 12.0582C10.3099 12.4857 10.4973 12.8874 10.8087 13.1814C11.12 13.4753 11.5319 13.6393 11.9601 13.6398L12.1735 13.628C12.5987 13.5774 12.9885 13.3664 13.2633 13.038C13.5382 12.7097 13.6773 12.2888 13.6522 11.8613C13.6271 11.4338 13.4397 11.0321 13.1283 10.7382C12.817 10.4442 12.4051 10.2802 11.9769 10.2798ZM22.057 10.2798L21.8437 10.2915C21.4185 10.3421 21.0286 10.5531 20.7538 10.8815C20.4789 11.2099 20.3399 11.6308 20.3649 12.0582C20.39 12.4857 20.5774 12.8874 20.8888 13.1814C21.2002 13.4753 21.612 13.6393 22.0402 13.6398L22.2536 13.628C22.6788 13.5774 23.0686 13.3664 23.3435 13.038C23.6183 12.7097 23.7574 12.2888 23.7323 11.8613C23.7072 11.4338 23.5198 11.0321 23.2085 10.7382C22.8971 10.4442 22.4852 10.2802 22.057 10.2798Z" fill="white"/>
</svg>
