<svg width="34" height="43" viewBox="0 0 34 43" fill="none" xmlns="http://www.w3.org/2000/svg">
<path fill-rule="evenodd" clip-rule="evenodd" d="M2.74869 16.2285C0.500592 19.3686 0.103607 23.2688 0.103607 25.2342C0.103607 34.5658 7.66838 42.1306 17 42.1306C26.3316 42.1306 33.8964 34.5658 33.8964 25.2342C33.8964 19.6934 31.2294 14.7756 27.109 11.6943C23.6084 8.11212 21.2315 2.63322 20.3955 0C12.3127 3.14611 12.1182 10.4243 12.089 11.5183C12.0879 11.5589 12.0871 11.591 12.086 11.614C12.0834 11.6742 12.0816 11.7362 12.0797 11.7998C12.0618 12.4177 12.0394 13.1889 11.1701 13.8895C10.403 14.5078 9.43844 14.1471 9.05204 13.8895L6.29204 11.194L2.73645 16.2299L2.74869 16.2285Z" fill="white"/>
<path d="M16.2361 38V34.8107C15.4176 34.672 14.7917 34.4987 14.3583 34.2907C13.9491 34.0596 13.612 33.944 13.3472 33.944C12.7935 33.944 12.4324 34.152 12.2639 34.568H11V27.704H12.2278C12.5648 29.5298 13.1546 30.9396 13.9972 31.9333C14.8639 32.9271 15.9111 33.424 17.1389 33.424C17.6926 33.424 18.2102 33.2738 18.6917 32.9733C19.1972 32.6729 19.6065 32.2916 19.9194 31.8293C20.2324 31.3671 20.3889 30.8818 20.3889 30.3733C20.3889 29.1484 19.5463 28.0853 17.8611 27.184L14.6833 25.4853C12.3 24.2373 11.1083 22.6196 11.1083 20.632C11.1083 19.8 11.337 19.0258 11.7944 18.3093C12.2759 17.5698 12.9019 16.9573 13.6722 16.472C14.4667 15.9636 15.3213 15.6516 16.2361 15.536V12H17.6806V15.536C18.4509 15.5822 18.9926 15.6516 19.3056 15.744C19.6185 15.8133 19.8593 15.64 20.0278 15.224H21.2556L22.7361 20.8053L21.5083 21.1173C20.9065 19.5227 20.2926 18.4249 19.6667 17.824C19.0648 17.2231 18.2704 16.9227 17.2833 16.9227C16.537 16.9227 15.887 17.1769 15.3333 17.6853C14.8037 18.1707 14.5389 18.7716 14.5389 19.488C14.5389 20.1351 14.7074 20.6782 15.0444 21.1173C15.3815 21.5333 15.9833 21.9724 16.85 22.4347L20.75 24.48C21.7852 25.0116 22.5796 25.7396 23.1333 26.664C23.7111 27.5653 24 28.5938 24 29.7493C24 30.6969 23.7111 31.5636 23.1333 32.3493C22.5796 33.1351 21.8213 33.7591 20.8583 34.2213C19.9194 34.6836 18.8602 34.9147 17.6806 34.9147V38H16.2361Z" fill="#FF760D"/>
</svg>
