<svg width="20" height="26" viewBox="0 0 20 26" fill="none" xmlns="http://www.w3.org/2000/svg">
<path d="M1.25 25.5V23H8.75V18H6.25C4.52083 18 3.04708 17.3904 1.82875 16.1712C0.610417 14.9521 0.000833333 13.4783 0 11.75C0 10.5 0.34375 9.34917 1.03125 8.2975C1.71875 7.24583 2.64583 6.48 3.8125 6C4 4.4375 4.6825 3.13042 5.86 2.07875C7.0375 1.02708 8.4175 0.500833 10 0.5C11.5833 0.5 12.9637 1.02625 14.1412 2.07875C15.3187 3.13125 16.0008 4.43833 16.1875 6C17.3542 6.47917 18.2812 7.245 18.9688 8.2975C19.6562 9.35 20 10.5008 20 11.75C20 13.4792 19.3904 14.9533 18.1713 16.1725C16.9521 17.3917 15.4783 18.0008 13.75 18H11.25V23H18.75V25.5H1.25Z" fill="white"/>
</svg>
