<svg width="30" height="36" viewBox="0 0 30 36" fill="none" xmlns="http://www.w3.org/2000/svg">
<path d="M1.25 35.5C0.918479 35.5 0.600537 35.3683 0.366117 35.1339C0.131696 34.8995 0 34.5815 0 34.25V3.32266C8.9432e-05 2.99514 0.0859644 2.67337 0.249076 2.38936C0.412187 2.10535 0.646845 1.86903 0.929688 1.70391C1.875 1.15469 3.77969 0.5 7.5 0.5C10.407 0.5 13.6586 1.64922 16.5273 2.6625C18.8375 3.47891 21.0195 4.25 22.5 4.25C24.4058 4.24415 26.2914 3.85907 28.0469 3.11719C28.2606 3.02695 28.4934 2.99101 28.7245 3.01258C28.9555 3.03415 29.1776 3.11255 29.371 3.2408C29.5644 3.36905 29.723 3.54316 29.8327 3.7476C29.9425 3.95204 30 4.18046 30 4.4125V21.55C29.9997 21.8538 29.9109 22.1508 29.7443 22.4049C29.5778 22.6589 29.3409 22.859 29.0625 22.9805C28.382 23.2781 25.8977 24.25 22.5 24.25C20.6141 24.25 18.2516 23.6922 15.7508 23.1008C12.9398 22.4367 10.0336 21.75 7.5 21.75C4.61953 21.75 3.14531 22.1859 2.5 22.4617V34.25C2.5 34.5815 2.3683 34.8995 2.13388 35.1339C1.89946 35.3683 1.58152 35.5 1.25 35.5Z" fill="white"/>
</svg>
