<svg width="28" height="36" viewBox="0 0 28 36" fill="none" xmlns="http://www.w3.org/2000/svg">
<path d="M14 27C12.9944 27.0002 12.0256 26.6216 11.2865 25.9397C10.5475 25.2577 10.0924 24.3224 10.012 23.32C7.34437 22.3758 5.0961 20.5194 3.66405 18.0787C2.23199 15.638 1.70824 12.7699 2.18525 9.98053C2.66226 7.19121 4.10935 4.66009 6.27108 2.83396C8.43282 1.00783 11.1702 0.0041209 14 1.26188e-07C17.0098 -0.000436104 19.9098 1.13017 22.1251 3.16765C24.3404 5.20513 25.7092 8.00068 25.96 11C25.9684 11.1301 25.9496 11.2605 25.9048 11.383C25.8601 11.5054 25.7903 11.6172 25.7 11.7112C25.6098 11.8053 25.5009 11.8795 25.3804 11.9292C25.2599 11.9789 25.1303 12.003 25 12C24.7322 11.9928 24.4767 11.8866 24.2827 11.7019C24.0888 11.5172 23.9702 11.2671 23.95 11C23.7719 9.23167 23.1257 7.54276 22.078 6.10714C21.0302 4.67153 19.6188 3.54108 17.9891 2.83217C16.3593 2.12327 14.57 1.86153 12.8055 2.07389C11.0409 2.28625 9.36486 2.96505 7.94982 4.0404C6.53477 5.11575 5.43189 6.54879 4.7547 8.192C4.07752 9.83521 3.8505 11.6292 4.09702 13.3893C4.34354 15.1494 5.05469 16.812 6.15726 18.2059C7.25983 19.5999 8.71398 20.6748 10.37 21.32C10.6713 20.6689 11.1422 20.1108 11.7333 19.7043C12.3245 19.2977 13.0141 19.0576 13.7299 19.0091C14.4457 18.9607 15.1613 19.1056 15.8019 19.4288C16.4424 19.7519 16.9842 20.2414 17.3706 20.846C17.7569 21.4505 17.9736 22.1478 17.9978 22.8649C18.0221 23.5819 17.853 24.2922 17.5084 24.9215C17.1637 25.5507 16.6562 26.0757 16.0389 26.4414C15.4217 26.8071 14.7174 27 14 27ZM4.018 22H4.2C5.38109 23.1578 6.75762 24.0976 8.266 24.776C8.70938 26.2389 9.69439 27.4774 11.0199 28.2387C12.3455 28.9999 13.9116 29.2266 15.3986 28.8723C16.8856 28.5181 18.1813 27.6096 19.0212 26.3324C19.8611 25.0552 20.1819 23.5057 19.918 22H24C25.0609 22 26.0783 22.4214 26.8284 23.1716C27.5786 23.9217 28 24.9391 28 26C28 29.382 26.334 31.932 23.73 33.594C21.166 35.228 17.71 36 14 36C10.29 36 6.834 35.228 4.27 33.594C1.666 31.934 0 29.38 0 26C0 23.774 1.806 22 4.018 22ZM22 12C22.001 13.3534 21.6584 14.6849 21.0042 15.8697C20.3501 17.0545 19.4058 18.0538 18.26 18.774C17.7028 18.211 17.0392 17.7642 16.3079 17.4597C15.5767 17.1552 14.7922 16.9989 14 17C13.2078 16.9988 12.4233 17.155 11.692 17.4595C10.9607 17.7641 10.2972 18.2109 9.74 18.774C8.22209 17.8172 7.06867 16.3793 6.464 14.69C6.15571 13.8267 5.99874 12.9167 6 12C6 9.87827 6.84285 7.84344 8.34315 6.34315C9.84344 4.84285 11.8783 4 14 4C16.1217 4 18.1566 4.84285 19.6569 6.34315C21.1571 7.84344 22 9.87827 22 12Z" fill="white"/>
</svg>
