<svg width="50" height="40" viewBox="0 0 50 40" fill="none" xmlns="http://www.w3.org/2000/svg">
<path d="M6.02404 30.9311C8.93518 30.8336 35.2 29.6401 49.7328 18.5438C49.7554 18.5263 49.7824 18.5152 49.8109 18.512C49.8393 18.5087 49.8681 18.5134 49.8941 18.5254C49.9201 18.5374 49.9423 18.5563 49.9582 18.5801C49.9741 18.6038 49.9832 18.6315 49.9844 18.6601C50.0219 19.5816 50.0614 22.4647 49.2109 24.8205C48.9939 25.4265 48.5963 25.9516 48.0714 26.3253C44.865 28.6085 31.1202 37.7682 13.5036 39.9642C12.7614 40.0575 12.0076 39.967 11.3087 39.7005C10.6099 39.4341 9.98754 39 9.49662 38.4366C7.71035 36.3515 6.45044 33.8697 5.82234 31.1989C5.81498 31.1678 5.81456 31.1354 5.82113 31.1041C5.82769 31.0728 5.84107 31.0434 5.86032 31.0178C5.87957 30.9923 5.90422 30.9713 5.93251 30.9563C5.9608 30.9413 5.99205 30.9327 6.02404 30.9311Z" fill="white"/>
<path opacity="0.7" d="M21.1328 29.2542C21.1328 29.2542 16.2463 23.7165 9.17843 30.757C9.17843 30.757 24.83 3.72618 0 1.51149C0 1.51772 27 -1.5 21.1328 29.2542Z" fill="white"/>
<path d="M46.1521 20.9529C46.1521 20.9529 31.6067 16.098 21.1328 29.2554C33.2702 -3.36509 0 1.51677 0 1.51677C0 1.51677 45.1394 -8.06845 46.1521 20.9529Z" fill="white"/>
</svg>
