<svg width="36" height="42" viewBox="0 0 36 42" fill="none" xmlns="http://www.w3.org/2000/svg">
<path fill-rule="evenodd" clip-rule="evenodd" d="M12.1994 20.178H2.70026C1.59569 20.178 0.700256 21.0734 0.700256 22.178V35.622C0.700256 38.9357 3.38655 41.622 6.70026 41.622H12.247V20.1947L12.1994 20.178ZM17.1957 41.622H14.7213V21.0637L17.1957 21.9326V41.622ZM19.67 41.622H26.0415C29.3552 41.622 32.0415 38.9357 32.0415 35.622V27.1464L19.67 22.8016V41.622Z" fill="white"/>
<path fill-rule="evenodd" clip-rule="evenodd" d="M1.66499 7.68373C2.397 5.59939 4.68009 4.50311 6.76443 5.23512L16.3301 8.59453L13.0842 17.4165L0.819463 13.1092C0.298379 12.9262 0.0243073 12.3554 0.207309 11.8344L1.66499 7.68373ZM15.419 18.2365L18.6649 9.4145L21.351 10.3578L18.1051 19.1798L15.419 18.2365ZM20.4399 19.9998L32.9786 24.4033C33.4997 24.5863 34.0705 24.3123 34.2535 23.7912L35.7112 19.6406C36.4432 17.5562 35.3469 15.2731 33.2626 14.5411L23.6858 11.1778L20.4399 19.9998Z" fill="white"/>
<g opacity="0.7">
<path d="M10.4008 3.73178L20.3467 7.36089C20.6539 4.7689 18.8874 0.410156 15.2969 0.410156C12.4245 0.410156 10.836 2.62457 10.4008 3.73178Z" fill="white"/>
<path d="M27.2112 4.72474C24.7597 4.11943 22.167 6.43978 21.1771 7.67562L31.0701 11.3075C31.8835 7.90261 30.2756 5.48138 27.2112 4.72474Z" fill="white"/>
</g>
</svg>
