<svg width="28" height="34" viewBox="0 0 28 34" fill="none" xmlns="http://www.w3.org/2000/svg">
<path d="M14 0.333008C10.4868 0.332832 7.11545 1.71927 4.61876 4.19099C2.12207 6.66271 0.701819 10.0199 0.666687 13.533C0.666687 22.6663 12.4167 32.833 12.9167 33.2663C13.2186 33.5246 13.6028 33.6665 14 33.6665C14.3973 33.6665 14.7815 33.5246 15.0834 33.2663C15.6667 32.833 27.3334 22.6663 27.3334 13.533C27.2982 10.0199 25.878 6.66271 23.3813 4.19099C20.8846 1.71927 17.5133 0.332832 14 0.333008ZM14 18.6663C12.8463 18.6663 11.7185 18.3242 10.7592 17.6832C9.79991 17.0423 9.05223 16.1312 8.61072 15.0653C8.16921 13.9994 8.05369 12.8265 8.27877 11.695C8.50385 10.5634 9.05942 9.52402 9.87523 8.70822C10.691 7.89241 11.7304 7.33684 12.862 7.11176C13.9935 6.88668 15.1664 7.0022 16.2323 7.44371C17.2982 7.88522 18.2093 8.6329 18.8503 9.59218C19.4912 10.5515 19.8334 11.6793 19.8334 12.833C19.8334 14.3801 19.2188 15.8638 18.1248 16.9578C17.0308 18.0518 15.5471 18.6663 14 18.6663Z" fill="#FF760D"/>
</svg>
