<svg width="1920" height="408" viewBox="0 0 1920 408" fill="none" xmlns="http://www.w3.org/2000/svg">
<path d="M32.5425 14C16.2663 14 16.2663 0.000427233 0 0.000427233V408H1920V13.9996C1903.73 13.9996 1903.72 0 1887.46 0C1871.19 0 1871.18 13.9996 1854.92 13.9996C1838.65 13.9996 1838.64 0 1822.37 0C1806.11 0 1806.12 13.9996 1789.84 13.9996C1773.56 13.9996 1773.56 0.000427233 1757.3 0.000427233C1741.02 0.000427233 1741.01 14 1724.74 14C1708.48 14 1708.47 0.000427233 1692.2 0.000427233C1675.94 0.000427233 1675.93 14 1659.66 14C1643.39 14 1643.38 0.000427233 1627.12 0.000427233C1610.85 0.000427233 1610.86 14 1594.58 14C1578.31 14 1578.31 0.000427233 1562.04 0.000427233C1545.77 0.000427233 1545.76 14 1529.49 14C1513.22 14 1513.21 0.000427233 1496.95 0.000427233C1480.68 0.000427233 1480.67 14 1464.4 14C1448.14 14 1448.13 0.000427233 1431.86 0.000427233C1415.6 0.000427233 1415.61 14 1399.33 14C1383.05 14 1383.05 0.000427233 1366.79 0.000427233C1350.51 0.000427233 1350.5 14 1334.23 14C1317.97 14 1317.96 0.000427233 1301.69 0.000427233C1285.43 0.000427233 1285.42 14 1269.15 14C1252.88 14 1252.87 0.000427233 1236.61 0.000427233C1220.34 0.000427233 1220.35 14 1204.07 14C1187.8 14 1187.8 0 1171.53 0C1155.26 0 1155.25 13.9996 1138.98 13.9996C1122.71 13.9996 1122.7 0 1106.44 0C1090.17 0 1090.16 13.9996 1073.89 13.9996C1057.63 13.9996 1057.62 0 1041.35 0C1025.09 0 1025.1 13.9996 1008.82 13.9996C992.543 13.9996 992.543 0 976.276 0C960 0 959.99 13.9996 943.724 13.9996C927.458 13.9996 927.448 0 911.181 0C894.915 0 894.905 13.9996 878.639 13.9996C862.372 13.9996 862.362 0 846.096 0C829.83 0 829.84 13.9996 813.564 13.9996C797.287 13.9996 797.287 0 781.021 0C764.745 0 764.735 13.9996 748.469 13.9996C732.202 13.9996 732.192 0 715.926 0C699.66 0 699.65 13.9996 683.383 13.9996C667.117 13.9996 667.107 0 650.841 0C634.575 0 634.585 13.9996 618.308 13.9996C602.032 13.9996 602.032 0.000427233 585.766 0.000427233C569.49 0.000427233 569.48 14 553.213 14C536.947 14 536.937 0.000427233 520.671 0.000427233C504.404 0.000427233 504.394 14 488.128 14C471.862 14 471.852 0.000427233 455.586 0.000427233C439.319 0.000427233 439.329 14 423.053 14C406.777 14 406.777 0.000427233 390.51 0.000427233C374.234 0.000427233 374.224 14 357.958 14C341.692 14 341.682 0.000427233 325.415 0.000427233C309.149 0.000427233 309.139 14 292.873 14C276.607 14 276.597 0.000427233 260.33 0.000427233C244.064 0.000427233 244.074 14 227.798 14C211.522 14 211.522 0.000427233 195.255 0.000427233C178.979 0.000427233 178.969 14 162.703 14C146.436 14 146.427 0.000427233 130.16 0.000427233C113.894 0.000427233 113.884 14 97.6177 14C81.3514 14 81.3414 0.000427233 65.0751 0.000427233C48.8088 0.000427233 48.8188 14 32.5425 14Z" fill="url(#paint0_linear_154_76)"/>
<defs>
<linearGradient id="paint0_linear_154_76" x1="0.000208905" y1="589" x2="1920" y2="0.00026413" gradientUnits="userSpaceOnUse">
<stop stop-color="#0065C1"/>
<stop offset="1" stop-color="#71E5FF"/>
</linearGradient>
</defs>
</svg>
