<svg width="426" height="55" viewBox="0 0 426 55" fill="none" xmlns="http://www.w3.org/2000/svg">
<path d="M3 51.9978L252 51.9978M423 51.9978L314 51.9978M276 51.9978L276 33.4983C276 32.946 275.552 32.4983 275 32.4983L269.328 32.4985C268.45 32.4986 267.998 31.4472 268.603 30.8101L294.275 3.76409C294.669 3.34868 295.331 3.34868 295.725 3.76409L321.397 30.8103C322.002 31.4474 321.55 32.4988 320.672 32.4987L315 32.4985C314.448 32.4985 314 32.9462 314 33.4985L314 51.9978M276 51.9978L289 51.9978M276 51.9978L252 51.9978M314 51.9978L301 51.9978M289 51.9978L289 36C289 35.4477 289.448 35 290 35L300 35C300.552 35 301 35.4477 301 36L301 51.9978M289 51.9978L301 51.9978M252 51.9978L252 37.5M252 37.5C246.667 34.1667 239.2 24.6 252 13C257.333 17.5 264.8 28.7 252 37.5Z" stroke="url(#paint0_linear_85_56)" stroke-width="5" stroke-linecap="round"/>
<defs>
<linearGradient id="paint0_linear_85_56" x1="3" y1="52" x2="423" y2="52.585" gradientUnits="userSpaceOnUse">
<stop stop-color="#FFE7B3"/>
<stop offset="1" stop-color="#FF760D"/>
</linearGradient>
</defs>
</svg>
