<svg width="344.000000" height="178.000000" viewBox="0 0 344 178" fill="none" xmlns="http://www.w3.org/2000/svg" xmlns:xlink="http://www.w3.org/1999/xlink">
	<desc>
			Created with Pixso.
	</desc>
	<defs>
		<linearGradient x1="273.800812" y1="-28.417942" x2="296.852814" y2="76.131256" id="paint_linear_154_11_0" gradientUnits="userSpaceOnUse">
			<stop stop-color="#71E5FF"/>
			<stop offset="1.000000" stop-color="#0065C1"/>
		</linearGradient>
		<linearGradient x1="63.116104" y1="1.070290" x2="-0.142891" y2="71.573967" id="paint_linear_154_11_1" gradientUnits="userSpaceOnUse">
			<stop stop-color="#71E5FF" stop-opacity="0.000000"/>
			<stop offset="1.000000" stop-color="#0065C1"/>
		</linearGradient>
		<linearGradient x1="85.538857" y1="65.989578" x2="85.538857" y2="-9.024055" id="paint_linear_154_18_0" gradientUnits="userSpaceOnUse">
			<stop offset="0.592874" stop-color="#E4FEFD"/>
			<stop offset="0.866627" stop-color="#53F0FF"/>
		</linearGradient>
		<linearGradient x1="113.213631" y1="11.013341" x2="97.284630" y2="12.723410" id="paint_linear_154_18_1" gradientUnits="userSpaceOnUse">
			<stop stop-color="#0046AF"/>
			<stop offset="1.000000" stop-color="#0046AF" stop-opacity="0.000000"/>
		</linearGradient>
		<linearGradient x1="56.339634" y1="26.828087" x2="72.910065" y2="26.079941" id="paint_linear_154_18_2" gradientUnits="userSpaceOnUse">
			<stop stop-color="#0046AF"/>
			<stop offset="1.000000" stop-color="#0046AF" stop-opacity="0.000000"/>
		</linearGradient>
		<linearGradient x1="111.625061" y1="42.610844" x2="111.819405" y2="42.610844" id="paint_linear_154_19_0" gradientUnits="userSpaceOnUse">
			<stop stop-color="#44C2DB"/>
			<stop offset="0.980000" stop-color="#276CA3"/>
		</linearGradient>
		<linearGradient x1="82.104088" y1="22.022078" x2="82.104088" y2="33.992516" id="paint_linear_154_21_0" gradientUnits="userSpaceOnUse">
			<stop stop-color="#FFE7B3"/>
			<stop offset="1.000000" stop-color="#FF760D"/>
		</linearGradient>
		<linearGradient x1="74.941383" y1="33.992512" x2="84.135307" y2="28.007298" id="paint_linear_154_21_1" gradientUnits="userSpaceOnUse">
			<stop stop-color="#230085"/>
			<stop offset="1.000000" stop-color="#230085" stop-opacity="0.000000"/>
		</linearGradient>
		<linearGradient x1="62.399593" y1="23.274473" x2="62.399593" y2="33.996830" id="paint_linear_154_22_0" gradientUnits="userSpaceOnUse">
			<stop stop-color="#FFE7B3"/>
			<stop offset="1.000000" stop-color="#FF760D"/>
		</linearGradient>
		<linearGradient x1="58.387325" y1="33.996830" x2="63.537403" y2="28.635649" id="paint_linear_154_22_1" gradientUnits="userSpaceOnUse">
			<stop stop-color="#230085"/>
			<stop offset="1.000000" stop-color="#230085" stop-opacity="0.000000"/>
		</linearGradient>
		<linearGradient x1="72.156502" y1="15.885577" x2="72.156502" y2="33.956867" id="paint_linear_154_23_0" gradientUnits="userSpaceOnUse">
			<stop stop-color="#FFE7B3"/>
			<stop offset="1.000000" stop-color="#FF760D"/>
		</linearGradient>
		<linearGradient x1="85.364143" y1="6.165588" x2="106.807877" y2="1.876488" id="paint_linear_154_24_0" gradientUnits="userSpaceOnUse">
			<stop stop-color="#24CDF2"/>
			<stop offset="1.000000" stop-color="#0065C1"/>
		</linearGradient>
		<linearGradient x1="87.776520" y1="7.775370" x2="106.807831" y2="2.413977" id="paint_linear_154_25_0" gradientUnits="userSpaceOnUse">
			<stop stop-color="#24CDF2"/>
			<stop offset="1.000000" stop-color="#0065C1"/>
		</linearGradient>
		<linearGradient x1="59.479664" y1="51.695122" x2="59.479664" y2="61.797821" id="paint_linear_154_26_0" gradientUnits="userSpaceOnUse">
			<stop stop-color="#FFE7B3"/>
			<stop offset="1.000000" stop-color="#F89A52"/>
		</linearGradient>
		<linearGradient x1="73.016975" y1="56.859505" x2="51.315056" y2="57.928299" id="paint_linear_154_26_1" gradientUnits="userSpaceOnUse">
			<stop stop-color="#08466A"/>
			<stop offset="1.000000" stop-color="#458EB9"/>
		</linearGradient>
		<linearGradient x1="50.812843" y1="59.205803" x2="71.157692" y2="57.634201" id="paint_linear_154_26_2" gradientUnits="userSpaceOnUse">
			<stop stop-color="#24CDF2"/>
			<stop offset="1.000000" stop-color="#0065C1"/>
		</linearGradient>
		<linearGradient x1="58.584663" y1="61.138004" x2="58.691566" y2="56.862846" id="paint_linear_154_26_3" gradientUnits="userSpaceOnUse">
			<stop stop-color="#000000"/>
			<stop offset="1.000000" stop-color="#000000" stop-opacity="0.000000"/>
		</linearGradient>
		<linearGradient x1="61.043522" y1="48.737564" x2="53.880817" y2="49.806351" id="paint_linear_154_27_0" gradientUnits="userSpaceOnUse">
			<stop stop-color="#08466A"/>
			<stop offset="1.000000" stop-color="#458EB9"/>
		</linearGradient>
		<linearGradient x1="47.301517" y1="50.934475" x2="59.631664" y2="51.738686" id="paint_linear_154_27_1" gradientUnits="userSpaceOnUse">
			<stop stop-color="#24CDF2"/>
			<stop offset="1.000000" stop-color="#0065C1"/>
		</linearGradient>
		<linearGradient x1="56.232792" y1="56.649944" x2="55.912067" y2="52.909180" id="paint_linear_154_27_2" gradientUnits="userSpaceOnUse">
			<stop stop-color="#000000"/>
			<stop offset="1.000000" stop-color="#000000" stop-opacity="0.000000"/>
		</linearGradient>
		<linearGradient x1="74.086044" y1="53.332996" x2="54.415340" y2="43.713905" id="paint_linear_154_28_0" gradientUnits="userSpaceOnUse">
			<stop stop-color="#08466A"/>
			<stop offset="1.000000" stop-color="#458EB9"/>
		</linearGradient>
		<linearGradient x1="52.930496" y1="44.499889" x2="71.693764" y2="52.810036" id="paint_linear_154_28_1" gradientUnits="userSpaceOnUse">
			<stop stop-color="#24CDF2"/>
			<stop offset="1.000000" stop-color="#0065C1"/>
		</linearGradient>
		<linearGradient x1="62.819210" y1="33.783592" x2="68.770592" y2="40.956062" id="paint_linear_154_29_0" gradientUnits="userSpaceOnUse">
			<stop stop-color="#FDFF9A"/>
			<stop offset="1.000000" stop-color="#FFDC01"/>
		</linearGradient>
		<linearGradient x1="78.845139" y1="33.619991" x2="92.333374" y2="41.013111" id="paint_linear_154_30_0" gradientUnits="userSpaceOnUse">
			<stop stop-color="#FDFF9A"/>
			<stop offset="1.000000" stop-color="#FFDC01"/>
		</linearGradient>
		<linearGradient x1="73.326187" y1="8.415649" x2="76.526649" y2="10.023587" id="paint_linear_154_31_0" gradientUnits="userSpaceOnUse">
			<stop stop-color="#FDFF9A"/>
			<stop offset="1.000000" stop-color="#FFDC01"/>
		</linearGradient>
		<linearGradient x1="68.758316" y1="0.927969" x2="75.921883" y2="6.796813" id="paint_linear_154_32_0" gradientUnits="userSpaceOnUse">
			<stop stop-color="#FDFF9A"/>
			<stop offset="1.000000" stop-color="#FFDC01"/>
		</linearGradient>
		<linearGradient x1="63.930012" y1="33.990925" x2="54.842999" y2="20.631058" id="paint_linear_154_33_0" gradientUnits="userSpaceOnUse">
			<stop stop-color="#385128"/>
			<stop offset="1.000000" stop-color="#93B670"/>
		</linearGradient>
		<linearGradient x1="54.806808" y1="20.373047" x2="51.322205" y2="27.074776" id="paint_linear_154_34_0" gradientUnits="userSpaceOnUse">
			<stop stop-color="#007705"/>
			<stop offset="1.000000" stop-color="#7CFF3F"/>
		</linearGradient>
		<linearGradient x1="54.538731" y1="20.102949" x2="48.641705" y2="19.298744" id="paint_linear_154_35_0" gradientUnits="userSpaceOnUse">
			<stop stop-color="#007705"/>
			<stop offset="1.000000" stop-color="#7CFF3F"/>
		</linearGradient>
		<linearGradient x1="55.074890" y1="19.836813" x2="55.005417" y2="16.236814" id="paint_linear_154_36_0" gradientUnits="userSpaceOnUse">
			<stop stop-color="#007705"/>
			<stop offset="1.000000" stop-color="#7CFF3F"/>
		</linearGradient>
		<linearGradient x1="55.056694" y1="20.311264" x2="59.546749" y2="16.036110" id="paint_linear_154_37_0" gradientUnits="userSpaceOnUse">
			<stop stop-color="#007705"/>
			<stop offset="1.000000" stop-color="#7CFF3F"/>
		</linearGradient>
		<linearGradient x1="64.036804" y1="16.036118" x2="62.219402" y2="15.287962" id="paint_linear_154_37_1" gradientUnits="userSpaceOnUse">
			<stop stop-color="#007705"/>
			<stop offset="1.000000" stop-color="#007705" stop-opacity="0.000000"/>
		</linearGradient>
		<linearGradient x1="55.074787" y1="20.374409" x2="61.239861" y2="22.518963" id="paint_linear_154_38_0" gradientUnits="userSpaceOnUse">
			<stop stop-color="#007705"/>
			<stop offset="1.000000" stop-color="#7CFF3F"/>
		</linearGradient>
		<linearGradient x1="67.136932" y1="33.779202" x2="68.209213" y2="23.056435" id="paint_linear_154_39_0" gradientUnits="userSpaceOnUse">
			<stop stop-color="#385128"/>
			<stop offset="1.000000" stop-color="#93B670"/>
		</linearGradient>
		<linearGradient x1="67.311073" y1="34.042625" x2="68.209160" y2="23.056173" id="paint_linear_154_40_0" gradientUnits="userSpaceOnUse">
			<stop stop-color="#385128"/>
			<stop offset="1.000000" stop-color="#93B670"/>
		</linearGradient>
		<linearGradient x1="68.477180" y1="22.517681" x2="74.106155" y2="20.641197" id="paint_linear_154_41_0" gradientUnits="userSpaceOnUse">
			<stop stop-color="#007705"/>
			<stop offset="1.000000" stop-color="#7CFF3F"/>
		</linearGradient>
		<linearGradient x1="68.477119" y1="22.518557" x2="72.497818" y2="25.199249" id="paint_linear_154_42_0" gradientUnits="userSpaceOnUse">
			<stop stop-color="#007705"/>
			<stop offset="1.000000" stop-color="#7CFF3F"/>
		</linearGradient>
		<linearGradient x1="68.209084" y1="22.249502" x2="69.281273" y2="19.300741" id="paint_linear_154_43_0" gradientUnits="userSpaceOnUse">
			<stop stop-color="#007705"/>
			<stop offset="1.000000" stop-color="#7CFF3F"/>
		</linearGradient>
		<linearGradient x1="68.209167" y1="22.249155" x2="66.332840" y2="20.640739" id="paint_linear_154_44_0" gradientUnits="userSpaceOnUse">
			<stop stop-color="#007705"/>
			<stop offset="1.000000" stop-color="#7CFF3F"/>
		</linearGradient>
		<linearGradient x1="68.209068" y1="22.517235" x2="66.868835" y2="22.785303" id="paint_linear_154_45_0" gradientUnits="userSpaceOnUse">
			<stop stop-color="#007705"/>
			<stop offset="1.000000" stop-color="#7CFF3F"/>
		</linearGradient>
		<linearGradient x1="80.003113" y1="36.995434" x2="85.632088" y2="48.522404" id="paint_linear_154_46_0" gradientUnits="userSpaceOnUse">
			<stop stop-color="#71E5FF"/>
			<stop offset="1.000000" stop-color="#0065C1"/>
		</linearGradient>
		<linearGradient x1="94.291260" y1="36.984711" x2="112.436760" y2="49.057846" id="paint_linear_154_47_0" gradientUnits="userSpaceOnUse">
			<stop stop-color="#71E5FF"/>
			<stop offset="1.000000" stop-color="#0065C1"/>
		</linearGradient>
		<linearGradient x1="94.291328" y1="50.561657" x2="98.888245" y2="70.650055" id="paint_linear_154_48_0" gradientUnits="userSpaceOnUse">
			<stop stop-color="#71E5FF"/>
			<stop offset="1.000000" stop-color="#0065C1"/>
		</linearGradient>
		<linearGradient x1="74.086189" y1="69.580276" x2="101.454132" y2="76.099892" id="paint_linear_154_49_0" gradientUnits="userSpaceOnUse">
			<stop stop-color="#FDFF9A"/>
			<stop offset="1.000000" stop-color="#FFDC01"/>
		</linearGradient>
		<linearGradient x1="102.023438" y1="119.828186" x2="254.810013" y2="145.562866" id="paint_linear_154_52_0" gradientUnits="userSpaceOnUse">
			<stop stop-color="#FFE7B3"/>
			<stop offset="1.000000" stop-color="#FF760D"/>
		</linearGradient>
		<linearGradient x1="119.178558" y1="120.096283" x2="169.035233" y2="179.071503" id="paint_linear_154_53_0" gradientUnits="userSpaceOnUse">
			<stop stop-color="#FFE7B3"/>
			<stop offset="1.000000" stop-color="#FF760D"/>
		</linearGradient>
		<linearGradient x1="96.930748" y1="102.940430" x2="95.054420" y2="106.693398" id="paint_linear_154_55_0" gradientUnits="userSpaceOnUse">
			<stop stop-color="#FFE7B3"/>
			<stop offset="1.000000" stop-color="#FF760D"/>
		</linearGradient>
		<linearGradient x1="100.147285" y1="106.962654" x2="88.889328" y2="113.396317" id="paint_linear_154_56_0" gradientUnits="userSpaceOnUse">
			<stop stop-color="#FFE7B3"/>
			<stop offset="1.000000" stop-color="#FF760D"/>
		</linearGradient>
		<linearGradient x1="103.363861" y1="112.324112" x2="87.549110" y2="115.004807" id="paint_linear_154_57_0" gradientUnits="userSpaceOnUse">
			<stop stop-color="#71E5FF"/>
			<stop offset="1.000000" stop-color="#0065C1"/>
		</linearGradient>
		<linearGradient x1="102.559715" y1="114.736542" x2="88.621292" y2="124.655106" id="paint_linear_154_58_0" gradientUnits="userSpaceOnUse">
			<stop stop-color="#FFE7B3"/>
			<stop offset="1.000000" stop-color="#FF760D"/>
		</linearGradient>
		<linearGradient x1="102.911331" y1="139.929596" x2="88.165421" y2="172.898483" id="paint_linear_154_59_0" gradientUnits="userSpaceOnUse">
			<stop stop-color="#6CD9F1"/>
			<stop offset="1.000000" stop-color="#08476A"/>
		</linearGradient>
		<linearGradient x1="102.291656" y1="125.993698" x2="88.085182" y2="139.397171" id="paint_linear_154_60_0" gradientUnits="userSpaceOnUse">
			<stop stop-color="#FFE7B3"/>
			<stop offset="1.000000" stop-color="#FF760D"/>
		</linearGradient>
		<linearGradient x1="103.363892" y1="150.925735" x2="88.085236" y2="165.133408" id="paint_linear_154_61_0" gradientUnits="userSpaceOnUse">
			<stop stop-color="#FFE7B3"/>
			<stop offset="1.000000" stop-color="#FF760D"/>
		</linearGradient>
		<linearGradient x1="103.095749" y1="169.150726" x2="87.549057" y2="177.996155" id="paint_linear_154_62_0" gradientUnits="userSpaceOnUse">
			<stop stop-color="#FFE7B3"/>
			<stop offset="1.000000" stop-color="#FF760D"/>
		</linearGradient>
		<linearGradient x1="103.631905" y1="123.581398" x2="87.549110" y2="125.457901" id="paint_linear_154_65_0" gradientUnits="userSpaceOnUse">
			<stop stop-color="#71E5FF"/>
			<stop offset="1.000000" stop-color="#0065C1"/>
		</linearGradient>
		<linearGradient x1="96.930939" y1="144.223923" x2="93.982422" y2="148.385300" id="paint_linear_154_66_0" gradientUnits="userSpaceOnUse">
			<stop stop-color="#71E5FF"/>
			<stop offset="1.000000" stop-color="#0065C1"/>
		</linearGradient>
		<linearGradient x1="96.930939" y1="167.278824" x2="93.982430" y2="171.567932" id="paint_linear_154_67_0" gradientUnits="userSpaceOnUse">
			<stop stop-color="#71E5FF"/>
			<stop offset="1.000000" stop-color="#0065C1"/>
		</linearGradient>
		<linearGradient x1="95.672455" y1="119.575562" x2="254.660126" y2="119.575562" id="paint_linear_154_68_0" gradientUnits="userSpaceOnUse">
			<stop stop-color="#FFFFFF"/>
			<stop offset="1.000000" stop-color="#FFFFFF" stop-opacity="0.000000"/>
		</linearGradient>
		<linearGradient x1="95.136169" y1="119.576965" x2="254.928284" y2="119.576965" id="paint_linear_154_71_0" gradientUnits="userSpaceOnUse">
			<stop stop-color="#FFFFFF"/>
			<stop offset="1.000000" stop-color="#FFFFFF" stop-opacity="0.000000"/>
		</linearGradient>
	</defs>
	<path id="Union" d="M274.171 76.1211L257.978 76.1211L250.042 75.7998L247.146 68.8311L243.607 59.9316L215.08 59.9316L212.721 64.7568L207.359 76.1211L189.878 76.1211L220.979 12.9717L226.77 1.07031L238.567 1.07031L244.25 12.9717L274.171 76.1211ZM296.814 76.1211L296.814 60.0391L311.935 60.0391C319.299 60.0391 325.448 58.3594 330.381 55C335.386 51.5693 338.925 47.1377 340.998 41.7051C342.428 38.1309 343.143 34.4141 343.143 30.5547C343.143 26.623 342.428 22.9062 340.998 19.4043C338.925 13.9004 335.386 9.46875 330.381 6.10938C325.448 2.75 319.299 1.07031 311.935 1.07031L280.62 1.07031L280.62 76.1211L296.814 76.1211ZM187.263 1.07031L169.031 1.07031L142.757 33.5566L142.757 1.07031L126.563 1.07031L126.563 76.1211L142.757 76.1211L142.757 55.9648L145.652 52.4268L163.347 76.1211L189.3 76.1211L157.985 37.0947L187.263 1.07031ZM47.6875 11.5879L16.0508 11.5879L16.0508 33.3525L42.0037 33.3525L42.0037 43.8594L16.0508 43.8594L16.0508 57.3682L47.6875 57.3682L47.6875 76.1318L-0.142883 76.1318L-0.142883 1.08008L47.6875 1.08008L47.6875 11.5879ZM296.814 11.5771L311.935 11.5771C314.652 11.5771 317.083 12.1133 319.228 13.1855C321.373 14.2578 323.017 15.6875 324.161 17.4746C325.305 19.1895 326.127 21.084 326.628 23.1572Q326.89 24.2441 326.969 25.3447L326.969 25.3486L326.969 25.3506Q327.115 27.3945 326.628 29.4824C326.127 31.5557 325.305 33.4854 324.161 35.2725C323.017 36.9873 321.373 38.3818 319.228 39.4531C317.083 40.5254 314.652 41.0615 311.935 41.0615L296.814 41.0615L296.814 11.5771ZM220.121 49.5322L239.425 49.5322L230.738 27.5527L220.121 49.5322Z" clip-rule="evenodd" fill="url(#paint_linear_154_11_0)" fill-opacity="1.000000" fill-rule="evenodd"/>
	<path id="Union" d="M274.171 76.1211L257.978 76.1211L250.042 75.7998L247.146 68.8311L243.607 59.9316L215.08 59.9316L212.721 64.7568L207.359 76.1211L189.878 76.1211L220.979 12.9717L226.77 1.07031L238.567 1.07031L244.25 12.9717L274.171 76.1211ZM296.814 76.1211L296.814 60.0391L311.935 60.0391C319.299 60.0391 325.448 58.3594 330.381 55C335.386 51.5693 338.925 47.1377 340.998 41.7051C342.428 38.1309 343.143 34.4141 343.143 30.5547C343.143 26.623 342.428 22.9062 340.998 19.4043C338.925 13.9004 335.386 9.46875 330.381 6.10938C325.448 2.75 319.299 1.07031 311.935 1.07031L280.62 1.07031L280.62 76.1211L296.814 76.1211ZM187.263 1.07031L169.031 1.07031L142.757 33.5566L142.757 1.07031L126.563 1.07031L126.563 76.1211L142.757 76.1211L142.757 55.9648L145.652 52.4268L163.347 76.1211L189.3 76.1211L157.985 37.0947L187.263 1.07031ZM47.6875 11.5879L16.0508 11.5879L16.0508 33.3525L42.0037 33.3525L42.0037 43.8594L16.0508 43.8594L16.0508 57.3682L47.6875 57.3682L47.6875 76.1318L-0.142883 76.1318L-0.142883 1.08008L47.6875 1.08008L47.6875 11.5879ZM296.814 11.5771L311.935 11.5771C314.652 11.5771 317.083 12.1133 319.228 13.1855C321.373 14.2578 323.017 15.6875 324.161 17.4746C325.305 19.1895 326.127 21.084 326.628 23.1572Q326.89 24.2441 326.969 25.3447L326.969 25.3486L326.969 25.3506Q327.115 27.3945 326.628 29.4824C326.127 31.5557 325.305 33.4854 324.161 35.2725C323.017 36.9873 321.373 38.3818 319.228 39.4531C317.083 40.5254 314.652 41.0615 311.935 41.0615L296.814 41.0615L296.814 11.5771ZM220.121 49.5322L239.425 49.5322L230.738 27.5527L220.121 49.5322Z" clip-rule="evenodd" fill="url(#paint_linear_154_11_1)" fill-opacity="1.000000" fill-rule="evenodd"/>
	<path id="Vector" d="M117.09 56.14C116.8 61.07 114.66 65.24 110.67 68.67C109.63 69.58 108.52 70.4 107.35 71.13C103.73 73.38 99.33 74.88 94.17 75.63C87.73 76.56 81.17 76.16 74.89 74.45C71.67 73.56 68.82 72.45 66.35 71.1C64.45 70.08 62.68 68.84 61.09 67.39L61.07 67.37C59.38 65.99 55.68 64.47 54.04 63.83C54.01 63.82 53.98 63.79 53.97 63.77C53.95 63.74 53.95 63.71 53.95 63.68C53.95 63.65 53.97 63.62 53.99 63.6C54.02 63.58 54.04 63.57 54.08 63.56C54.39 63.54 54.71 63.49 55.02 63.4C55.76 63.17 56.42 62.73 56.91 62.12C56.97 62.04 57.03 61.96 57.09 61.88C57.25 61.66 57.42 61.44 57.59 61.24C59.75 58.78 63.12 58.13 66.73 58.09C70.9 58.05 72.85 56.87 72.85 56.87C72.94 57 73.05 57.12 73.18 57.22C74.83 59.22 76.87 60.86 79.18 62.04C81.53 63.25 83.87 63.96 86.19 64.18C88.39 64.4 90.61 64.31 92.78 63.91C94.85 63.52 96.53 62.71 97.81 61.5C99.1 60.29 99.78 58.86 99.85 57.22C99.85 56.44 99.66 55.66 99.31 54.97C98.95 54.25 98.36 53.58 97.54 52.93C96.81 52.35 96.04 51.81 95.24 51.33C94.61 50.97 93.97 50.65 93.3 50.37C92.9 50.2 92.46 50.02 91.98 49.83C90.51 49.26 89.33 48.81 88.44 48.49C87.55 48.17 86.21 47.72 84.43 47.15L84.25 47.09C83.65 46.9 83.07 46.67 82.5 46.4C82.15 46.29 81.81 46.18 81.46 46.06L81.12 45.94L80.85 45.84L80.45 45.7C80.05 45.56 79.65 45.41 79.25 45.26C79.11 45.21 78.97 45.16 78.83 45.11L78.63 45.03L78.28 44.89L78.21 44.86C77.93 44.75 77.65 44.64 77.37 44.53L77.07 44.41C76.94 44.35 76.82 44.3 76.69 44.25C76.38 44.12 76.07 43.98 75.76 43.85C75.68 41.88 75.35 39.93 74.76 38.05C74.72 37.9 74.67 37.76 74.62 37.61C74.22 36.38 73.7 35.19 73.07 34.05L72.97 33.88C72.54 33.13 72.08 32.41 71.57 31.72C71.08 31.05 70.65 30.55 70.19 29.91C69.28 28.65 68.33 27.17 67.58 25.6C67.46 25.36 67.35 25.12 67.25 24.87C67 24.3 66.79 23.72 66.62 23.13C66.57 22.94 66.52 22.75 66.47 22.57C66.36 22.1 66.27 21.62 66.23 21.15C66.2 20.87 66.19 20.59 66.19 20.32C66.18 19.46 66.33 18.6 66.63 17.8C66.68 17.68 66.73 17.55 66.78 17.43C67.92 14.61 69.69 12.31 71.95 10.76C74.01 9.34 76.47 8.53 79.22 8.51C79.68 8.5 80.15 8.52 80.63 8.56C82.18 8.72 83.73 8.81 85.28 8.74C86.26 8.69 87.88 8.41 88.83 8.12L87.35 7.7C86.66 7.76 85.97 7.78 85.28 7.74C83.78 7.68 82.28 7.45 80.8 7.17C80.68 7.15 80.55 7.13 80.43 7.11C76.23 6.48 72.35 7.54 69.22 9.85C67.29 11.27 65.64 13.18 64.38 15.45C64.31 15.57 64.24 15.69 64.18 15.81C64.08 16 63.98 16.19 63.88 16.39C63.75 16.64 63.63 16.89 63.53 17.15C63.09 18.21 62.85 19.33 62.79 20.47C62.79 20.48 62.79 20.49 62.79 20.5C62.78 20.67 62.78 20.84 62.78 21.01C62.78 21.75 62.83 22.5 62.94 23.23C63.35 26.15 64.56 28.91 66.03 31.49C66.53 32.37 67.06 33.22 67.6 34.05L67.76 34.29C68.72 35.87 69.41 37.6 69.79 39.41C69.9 39.93 69.99 40.45 70.05 40.97C69.63 40.73 69.21 40.48 68.8 40.22C67.16 39.2 65.59 38.08 64.08 36.87C63.02 36.02 62.03 35.08 61.14 34.05C60.07 32.83 59.16 31.48 58.42 30.04C58.36 29.93 58.3 29.81 58.24 29.7C57.43 28.04 56.89 26.27 56.63 24.44C56.56 23.98 56.52 23.5 56.49 23.02C56.45 22.36 56.45 21.69 56.48 21.03C56.48 20.91 56.49 20.8 56.5 20.68C56.52 20.48 56.54 20.28 56.56 20.08C56.61 19.58 56.69 19.08 56.79 18.59C56.93 17.85 57.12 17.13 57.36 16.41C58.28 13.7 59.88 11.28 62.15 9.14C63.24 8.11 64.42 7.18 65.68 6.38C68.11 4.82 70.93 3.6 74.14 2.72C76.68 1.98 79.28 1.49 81.92 1.27C84.25 1.07 86.59 1.05 88.92 1.22L88.98 1.22C91.35 1.35 93.71 1.67 96.04 2.16C96.36 2.22 96.69 2.3 97.01 2.38C98.87 2.81 100.7 3.36 102.48 4.03C102.64 4.09 102.8 4.15 102.95 4.21C107.38 5.92 110.98 8.24 113.77 11.17L100.16 16.31C97.66 14.31 94.31 12.96 90.1 12.24C85.88 11.53 82.12 11.79 78.8 13.04C75.5 14.29 73.95 16.43 74.14 19.47L74.14 19.52C74.19 20.24 74.47 20.97 74.98 21.72C75.88 23.03 77.49 24.39 79.83 25.81C82.13 27.2 85.12 28.64 88.81 30.12L89.07 30.23L90.42 30.77L91.49 31.3C94.02 32.24 96.29 33.16 98.31 34.05C98.74 34.24 99.17 34.43 99.58 34.62C100.54 35.07 101.51 35.56 102.49 36.09C102.66 36.06 102.82 36.04 102.98 36.01L103.17 35.97L103.2 35.97C103.25 35.96 103.31 35.95 103.36 35.94L103.43 35.92L103.48 35.91L103.59 35.89L103.71 35.86C103.83 35.84 103.95 35.81 104.06 35.79L104.12 35.77L104.27 35.74L104.41 35.7C104.43 35.7 104.45 35.69 104.47 35.69L104.61 35.65L104.61 35.65L104.77 35.61C104.84 35.59 104.9 35.57 104.97 35.55L105.14 35.5L105.21 35.48L105.23 35.47L105.32 35.44L105.47 35.39C105.5 35.38 105.53 35.37 105.55 35.36L105.65 35.33C105.69 35.32 105.73 35.3 105.77 35.29C105.96 35.22 106.14 35.14 106.31 35.07L106.33 35.06L106.37 35.04L106.47 35L106.52 34.97L106.61 34.93L106.65 34.91C106.71 34.88 106.77 34.85 106.82 34.82L106.87 34.79C106.91 34.77 106.95 34.75 106.98 34.73L107.06 34.68C107.09 34.67 107.11 34.65 107.14 34.64C107.18 34.61 107.22 34.58 107.26 34.56L107.35 34.51L107.37 34.49L107.4 34.47L107.42 34.45C107.47 34.42 107.51 34.39 107.55 34.36C107.62 34.31 107.69 34.25 107.75 34.2L107.84 34.13L107.92 34.05C107.98 34 108.04 33.95 108.09 33.89C108.14 33.84 108.19 33.79 108.23 33.74L108.26 33.71L108.29 33.67C108.29 33.66 108.3 33.66 108.3 33.66L108.33 33.61L108.37 33.57L108.39 33.55C108.39 33.54 108.4 33.53 108.4 33.52C108.44 33.47 108.48 33.41 108.52 33.36C108.53 33.34 108.55 33.32 108.56 33.3C108.56 33.29 108.56 33.29 108.56 33.29L108.59 33.24C108.59 33.24 108.59 33.23 108.59 33.23C108.61 33.2 108.63 33.16 108.65 33.13C108.67 33.1 108.68 33.08 108.69 33.05C108.72 33 108.75 32.95 108.77 32.89C108.77 32.88 108.78 32.88 108.78 32.87C108.84 32.74 108.89 32.6 108.93 32.47L108.93 32.46C108.94 32.43 108.95 32.41 108.95 32.38C108.96 32.36 108.96 32.34 108.97 32.32C108.98 32.27 108.99 32.22 109 32.17C109.02 32.13 109.02 32.08 109.03 32.04C109.03 32.02 109.04 32 109.04 31.98C109.05 31.94 109.05 31.91 109.06 31.88C109.06 31.85 109.07 31.79 109.08 31.75C109.08 31.71 109.09 31.66 109.09 31.62L109.09 31.58C109.09 31.58 109.09 31.57 109.09 31.56C109.1 31.51 109.1 31.46 109.1 31.4C109.1 31.39 109.1 31.38 109.1 31.37C109.1 31.33 109.1 31.29 109.1 31.25C109.1 31.24 109.1 31.23 109.1 31.22C109.1 31.2 109.1 31.19 109.11 31.17L109.12 31.12C109.12 31.09 109.13 31.07 109.14 31.04C109.14 31.04 109.14 31.03 109.14 31.03C109.14 31.03 109.14 31.03 109.14 31.03C109.14 31.01 109.15 30.99 109.15 30.98C109.16 30.96 109.16 30.95 109.17 30.94L109.18 30.93C109.19 30.9 109.21 30.86 109.23 30.83C109.26 30.79 109.29 30.76 109.33 30.72C109.34 30.71 109.35 30.71 109.36 30.7L109.38 30.67C109.4 30.66 109.42 30.65 109.44 30.63C109.48 30.61 109.52 30.58 109.57 30.57C109.59 30.56 109.61 30.55 109.64 30.54L109.64 30.54L109.65 30.54C109.66 30.54 109.67 30.54 109.68 30.54L109.69 30.54L109.71 30.53L109.73 30.53C109.75 30.53 109.76 30.52 109.77 30.52L109.79 30.52C109.81 30.52 109.82 30.52 109.84 30.52L109.85 30.52L109.89 30.52L109.9 30.52L109.93 30.52L109.97 30.53L110.02 30.54L110.03 30.54L110.04 30.54C110.06 30.55 110.07 30.55 110.08 30.55L110.11 30.56L110.13 30.57L110.14 30.58L110.15 30.58L110.18 30.59L110.25 30.63L110.33 30.68L110.41 30.73L110.42 30.73C110.43 30.74 110.44 30.74 110.44 30.75L110.47 30.77L110.53 30.81L110.58 30.85L110.58 30.86C110.61 30.88 110.65 30.91 110.68 30.95L110.69 30.96C110.72 30.99 110.75 31.01 110.77 31.04C110.8 31.07 110.82 31.1 110.85 31.13C110.87 31.16 110.89 31.18 110.91 31.2L110.96 31.27L110.97 31.28L110.99 31.32L111.01 31.34L111.06 31.42L111.1 31.48C111.11 31.5 111.12 31.51 111.13 31.53C111.14 31.55 111.15 31.57 111.16 31.58L111.18 31.63L111.2 31.67L111.24 31.74C111.24 31.75 111.25 31.76 111.25 31.77C111.26 31.79 111.27 31.82 111.28 31.84C111.29 31.86 111.29 31.87 111.3 31.89C111.34 31.98 111.37 32.07 111.4 32.17C111.41 32.21 111.42 32.25 111.43 32.29C111.44 32.32 111.45 32.36 111.46 32.4L111.48 32.46C111.48 32.48 111.49 32.5 111.49 32.52L111.51 32.61C111.51 32.64 111.52 32.67 111.52 32.71C111.53 32.71 111.53 32.72 111.52 32.73C111.52 32.76 111.53 32.78 111.54 32.81C111.54 32.82 111.54 32.83 111.54 32.84C111.54 32.87 111.55 32.9 111.55 32.93C111.56 32.95 111.56 32.98 111.56 33.01C111.57 33.04 111.57 33.07 111.57 33.11C111.58 33.14 111.58 33.18 111.58 33.21C111.58 33.21 111.54 35.07 110.16 37.3C110.16 37.3 108.55 39.43 111.57 42.51C111.63 42.57 111.69 42.63 111.76 42.69L111.81 42.75L111.9 42.84L111.9 42.84C112.07 43.01 112.23 43.18 112.38 43.35C113.21 44.26 113.94 45.26 114.57 46.33C115.08 47.21 115.53 48.13 115.91 49.08C116.84 51.29 117.23 53.65 117.09 56.14Z" fill="url(#paint_linear_154_18_0)" fill-opacity="1.000000" fill-rule="nonzero"/>
	<path id="Vector" d="M117.09 56.14C116.8 61.07 114.66 65.24 110.67 68.67C109.63 69.58 108.52 70.4 107.35 71.13C103.73 73.38 99.33 74.88 94.17 75.63C87.73 76.56 81.17 76.16 74.89 74.45C71.67 73.56 68.82 72.45 66.35 71.1C64.45 70.08 62.68 68.84 61.09 67.39L61.07 67.37C59.38 65.99 55.68 64.47 54.04 63.83C54.01 63.82 53.98 63.79 53.97 63.77C53.95 63.74 53.95 63.71 53.95 63.68C53.95 63.65 53.97 63.62 53.99 63.6C54.02 63.58 54.04 63.57 54.08 63.56C54.39 63.54 54.71 63.49 55.02 63.4C55.76 63.17 56.42 62.73 56.91 62.12C56.97 62.04 57.03 61.96 57.09 61.88C57.25 61.66 57.42 61.44 57.59 61.24C59.75 58.78 63.12 58.13 66.73 58.09C70.9 58.05 72.85 56.87 72.85 56.87C72.94 57 73.05 57.12 73.18 57.22C74.83 59.22 76.87 60.86 79.18 62.04C81.53 63.25 83.87 63.96 86.19 64.18C88.39 64.4 90.61 64.31 92.78 63.91C94.85 63.52 96.53 62.71 97.81 61.5C99.1 60.29 99.78 58.86 99.85 57.22C99.85 56.44 99.66 55.66 99.31 54.97C98.95 54.25 98.36 53.58 97.54 52.93C96.81 52.35 96.04 51.81 95.24 51.33C94.61 50.97 93.97 50.65 93.3 50.37C92.9 50.2 92.46 50.02 91.98 49.83C90.51 49.26 89.33 48.81 88.44 48.49C87.55 48.17 86.21 47.72 84.43 47.15L84.25 47.09C83.65 46.9 83.07 46.67 82.5 46.4C82.15 46.29 81.81 46.18 81.46 46.06L81.12 45.94L80.85 45.84L80.45 45.7C80.05 45.56 79.65 45.41 79.25 45.26C79.11 45.21 78.97 45.16 78.83 45.11L78.63 45.03L78.28 44.89L78.21 44.86C77.93 44.75 77.65 44.64 77.37 44.53L77.07 44.41C76.94 44.35 76.82 44.3 76.69 44.25C76.38 44.12 76.07 43.98 75.76 43.85C75.68 41.88 75.35 39.93 74.76 38.05C74.72 37.9 74.67 37.76 74.62 37.61C74.22 36.38 73.7 35.19 73.07 34.05L72.97 33.88C72.54 33.13 72.08 32.41 71.57 31.72C71.08 31.05 70.65 30.55 70.19 29.91C69.28 28.65 68.33 27.17 67.58 25.6C67.46 25.36 67.35 25.12 67.25 24.87C67 24.3 66.79 23.72 66.62 23.13C66.57 22.94 66.52 22.75 66.47 22.57C66.36 22.1 66.27 21.62 66.23 21.15C66.2 20.87 66.19 20.59 66.19 20.32C66.18 19.46 66.33 18.6 66.63 17.8C66.68 17.68 66.73 17.55 66.78 17.43C67.92 14.61 69.69 12.31 71.95 10.76C74.01 9.34 76.47 8.53 79.22 8.51C79.68 8.5 80.15 8.52 80.63 8.56C82.18 8.72 83.73 8.81 85.28 8.74C86.26 8.69 87.88 8.41 88.83 8.12L87.35 7.7C86.66 7.76 85.97 7.78 85.28 7.74C83.78 7.68 82.28 7.45 80.8 7.17C80.68 7.15 80.55 7.13 80.43 7.11C76.23 6.48 72.35 7.54 69.22 9.85C67.29 11.27 65.64 13.18 64.38 15.45C64.31 15.57 64.24 15.69 64.18 15.81C64.08 16 63.98 16.19 63.88 16.39C63.75 16.64 63.63 16.89 63.53 17.15C63.09 18.21 62.85 19.33 62.79 20.47C62.79 20.48 62.79 20.49 62.79 20.5C62.78 20.67 62.78 20.84 62.78 21.01C62.78 21.75 62.83 22.5 62.94 23.23C63.35 26.15 64.56 28.91 66.03 31.49C66.53 32.37 67.06 33.22 67.6 34.05L67.76 34.29C68.72 35.87 69.41 37.6 69.79 39.41C69.9 39.93 69.99 40.45 70.05 40.97C69.63 40.73 69.21 40.48 68.8 40.22C67.16 39.2 65.59 38.08 64.08 36.87C63.02 36.02 62.03 35.08 61.14 34.05C60.07 32.83 59.16 31.48 58.42 30.04C58.36 29.93 58.3 29.81 58.24 29.7C57.43 28.04 56.89 26.27 56.63 24.44C56.56 23.98 56.52 23.5 56.49 23.02C56.45 22.36 56.45 21.69 56.48 21.03C56.48 20.91 56.49 20.8 56.5 20.68C56.52 20.48 56.54 20.28 56.56 20.08C56.61 19.58 56.69 19.08 56.79 18.59C56.93 17.85 57.12 17.13 57.36 16.41C58.28 13.7 59.88 11.28 62.15 9.14C63.24 8.11 64.42 7.18 65.68 6.38C68.11 4.82 70.93 3.6 74.14 2.72C76.68 1.98 79.28 1.49 81.92 1.27C84.25 1.07 86.59 1.05 88.92 1.22L88.98 1.22C91.35 1.35 93.71 1.67 96.04 2.16C96.36 2.22 96.69 2.3 97.01 2.38C98.87 2.81 100.7 3.36 102.48 4.03C102.64 4.09 102.8 4.15 102.95 4.21C107.38 5.92 110.98 8.24 113.77 11.17L100.16 16.31C97.66 14.31 94.31 12.96 90.1 12.24C85.88 11.53 82.12 11.79 78.8 13.04C75.5 14.29 73.95 16.43 74.14 19.47L74.14 19.52C74.19 20.24 74.47 20.97 74.98 21.72C75.88 23.03 77.49 24.39 79.83 25.81C82.13 27.2 85.12 28.64 88.81 30.12L89.07 30.23L90.42 30.77L91.49 31.3C94.02 32.24 96.29 33.16 98.31 34.05C98.74 34.24 99.17 34.43 99.58 34.62C100.54 35.07 101.51 35.56 102.49 36.09C102.66 36.06 102.82 36.04 102.98 36.01L103.17 35.97L103.2 35.97C103.25 35.96 103.31 35.95 103.36 35.94L103.43 35.92L103.48 35.91L103.59 35.89L103.71 35.86C103.83 35.84 103.95 35.81 104.06 35.79L104.12 35.77L104.27 35.74L104.41 35.7C104.43 35.7 104.45 35.69 104.47 35.69L104.61 35.65L104.61 35.65L104.77 35.61C104.84 35.59 104.9 35.57 104.97 35.55L105.14 35.5L105.21 35.48L105.23 35.47L105.32 35.44L105.47 35.39C105.5 35.38 105.53 35.37 105.55 35.36L105.65 35.33C105.69 35.32 105.73 35.3 105.77 35.29C105.96 35.22 106.14 35.14 106.31 35.07L106.33 35.06L106.37 35.04L106.47 35L106.52 34.97L106.61 34.93L106.65 34.91C106.71 34.88 106.77 34.85 106.82 34.82L106.87 34.79C106.91 34.77 106.95 34.75 106.98 34.73L107.06 34.68C107.09 34.67 107.11 34.65 107.14 34.64C107.18 34.61 107.22 34.58 107.26 34.56L107.35 34.51L107.37 34.49L107.4 34.47L107.42 34.45C107.47 34.42 107.51 34.39 107.55 34.36C107.62 34.31 107.69 34.25 107.75 34.2L107.84 34.13L107.92 34.05C107.98 34 108.04 33.95 108.09 33.89C108.14 33.84 108.19 33.79 108.23 33.74L108.26 33.71L108.29 33.67C108.29 33.66 108.3 33.66 108.3 33.66L108.33 33.61L108.37 33.57L108.39 33.55C108.39 33.54 108.4 33.53 108.4 33.52C108.44 33.47 108.48 33.41 108.52 33.36C108.53 33.34 108.55 33.32 108.56 33.3C108.56 33.29 108.56 33.29 108.56 33.29L108.59 33.24C108.59 33.24 108.59 33.23 108.59 33.23C108.61 33.2 108.63 33.16 108.65 33.13C108.67 33.1 108.68 33.08 108.69 33.05C108.72 33 108.75 32.95 108.77 32.89C108.77 32.88 108.78 32.88 108.78 32.87C108.84 32.74 108.89 32.6 108.93 32.47L108.93 32.46C108.94 32.43 108.95 32.41 108.95 32.38C108.96 32.36 108.96 32.34 108.97 32.32C108.98 32.27 108.99 32.22 109 32.17C109.02 32.13 109.02 32.08 109.03 32.04C109.03 32.02 109.04 32 109.04 31.98C109.05 31.94 109.05 31.91 109.06 31.88C109.06 31.85 109.07 31.79 109.08 31.75C109.08 31.71 109.09 31.66 109.09 31.62L109.09 31.58C109.09 31.58 109.09 31.57 109.09 31.56C109.1 31.51 109.1 31.46 109.1 31.4C109.1 31.39 109.1 31.38 109.1 31.37C109.1 31.33 109.1 31.29 109.1 31.25C109.1 31.24 109.1 31.23 109.1 31.22C109.1 31.2 109.1 31.19 109.11 31.17L109.12 31.12C109.12 31.09 109.13 31.07 109.14 31.04C109.14 31.04 109.14 31.03 109.14 31.03C109.14 31.03 109.14 31.03 109.14 31.03C109.14 31.01 109.15 30.99 109.15 30.98C109.16 30.96 109.16 30.95 109.17 30.94L109.18 30.93C109.19 30.9 109.21 30.86 109.23 30.83C109.26 30.79 109.29 30.76 109.33 30.72C109.34 30.71 109.35 30.71 109.36 30.7L109.38 30.67C109.4 30.66 109.42 30.65 109.44 30.63C109.48 30.61 109.52 30.58 109.57 30.57C109.59 30.56 109.61 30.55 109.64 30.54L109.64 30.54L109.65 30.54C109.66 30.54 109.67 30.54 109.68 30.54L109.69 30.54L109.71 30.53L109.73 30.53C109.75 30.53 109.76 30.52 109.77 30.52L109.79 30.52C109.81 30.52 109.82 30.52 109.84 30.52L109.85 30.52L109.89 30.52L109.9 30.52L109.93 30.52L109.97 30.53L110.02 30.54L110.03 30.54L110.04 30.54C110.06 30.55 110.07 30.55 110.08 30.55L110.11 30.56L110.13 30.57L110.14 30.58L110.15 30.58L110.18 30.59L110.25 30.63L110.33 30.68L110.41 30.73L110.42 30.73C110.43 30.74 110.44 30.74 110.44 30.75L110.47 30.77L110.53 30.81L110.58 30.85L110.58 30.86C110.61 30.88 110.65 30.91 110.68 30.95L110.69 30.96C110.72 30.99 110.75 31.01 110.77 31.04C110.8 31.07 110.82 31.1 110.85 31.13C110.87 31.16 110.89 31.18 110.91 31.2L110.96 31.27L110.97 31.28L110.99 31.32L111.01 31.34L111.06 31.42L111.1 31.48C111.11 31.5 111.12 31.51 111.13 31.53C111.14 31.55 111.15 31.57 111.16 31.58L111.18 31.63L111.2 31.67L111.24 31.74C111.24 31.75 111.25 31.76 111.25 31.77C111.26 31.79 111.27 31.82 111.28 31.84C111.29 31.86 111.29 31.87 111.3 31.89C111.34 31.98 111.37 32.07 111.4 32.17C111.41 32.21 111.42 32.25 111.43 32.29C111.44 32.32 111.45 32.36 111.46 32.4L111.48 32.46C111.48 32.48 111.49 32.5 111.49 32.52L111.51 32.61C111.51 32.64 111.52 32.67 111.52 32.71C111.53 32.71 111.53 32.72 111.52 32.73C111.52 32.76 111.53 32.78 111.54 32.81C111.54 32.82 111.54 32.83 111.54 32.84C111.54 32.87 111.55 32.9 111.55 32.93C111.56 32.95 111.56 32.98 111.56 33.01C111.57 33.04 111.57 33.07 111.57 33.11C111.58 33.14 111.58 33.18 111.58 33.21C111.58 33.21 111.54 35.07 110.16 37.3C110.16 37.3 108.55 39.43 111.57 42.51C111.63 42.57 111.69 42.63 111.76 42.69L111.81 42.75L111.9 42.84L111.9 42.84C112.07 43.01 112.23 43.18 112.38 43.35C113.21 44.26 113.94 45.26 114.57 46.33C115.08 47.21 115.53 48.13 115.91 49.08C116.84 51.29 117.23 53.65 117.09 56.14Z" fill="url(#paint_linear_154_18_1)" fill-opacity="0.200000" fill-rule="nonzero"/>
	<path id="Vector" d="M117.09 56.14C116.8 61.07 114.66 65.24 110.67 68.67C109.63 69.58 108.52 70.4 107.35 71.13C103.73 73.38 99.33 74.88 94.17 75.63C87.73 76.56 81.17 76.16 74.89 74.45C71.67 73.56 68.82 72.45 66.35 71.1C64.45 70.08 62.68 68.84 61.09 67.39L61.07 67.37C59.38 65.99 55.68 64.47 54.04 63.83C54.01 63.82 53.98 63.79 53.97 63.77C53.95 63.74 53.95 63.71 53.95 63.68C53.95 63.65 53.97 63.62 53.99 63.6C54.02 63.58 54.04 63.57 54.08 63.56C54.39 63.54 54.71 63.49 55.02 63.4C55.76 63.17 56.42 62.73 56.91 62.12C56.97 62.04 57.03 61.96 57.09 61.88C57.25 61.66 57.42 61.44 57.59 61.24C59.75 58.78 63.12 58.13 66.73 58.09C70.9 58.05 72.85 56.87 72.85 56.87C72.94 57 73.05 57.12 73.18 57.22C74.83 59.22 76.87 60.86 79.18 62.04C81.53 63.25 83.87 63.96 86.19 64.18C88.39 64.4 90.61 64.31 92.78 63.91C94.85 63.52 96.53 62.71 97.81 61.5C99.1 60.29 99.78 58.86 99.85 57.22C99.85 56.44 99.66 55.66 99.31 54.97C98.95 54.25 98.36 53.58 97.54 52.93C96.81 52.35 96.04 51.81 95.24 51.33C94.61 50.97 93.97 50.65 93.3 50.37C92.9 50.2 92.46 50.02 91.98 49.83C90.51 49.26 89.33 48.81 88.44 48.49C87.55 48.17 86.21 47.72 84.43 47.15L84.25 47.09C83.65 46.9 83.07 46.67 82.5 46.4C82.15 46.29 81.81 46.18 81.46 46.06L81.12 45.94L80.85 45.84L80.45 45.7C80.05 45.56 79.65 45.41 79.25 45.26C79.11 45.21 78.97 45.16 78.83 45.11L78.63 45.03L78.28 44.89L78.21 44.86C77.93 44.75 77.65 44.64 77.37 44.53L77.07 44.41C76.94 44.35 76.82 44.3 76.69 44.25C76.38 44.12 76.07 43.98 75.76 43.85C75.68 41.88 75.35 39.93 74.76 38.05C74.72 37.9 74.67 37.76 74.62 37.61C74.22 36.38 73.7 35.19 73.07 34.05L72.97 33.88C72.54 33.13 72.08 32.41 71.57 31.72C71.08 31.05 70.65 30.55 70.19 29.91C69.28 28.65 68.33 27.17 67.58 25.6C67.46 25.36 67.35 25.12 67.25 24.87C67 24.3 66.79 23.72 66.62 23.13C66.57 22.94 66.52 22.75 66.47 22.57C66.36 22.1 66.27 21.62 66.23 21.15C66.2 20.87 66.19 20.59 66.19 20.32C66.18 19.46 66.33 18.6 66.63 17.8C66.68 17.68 66.73 17.55 66.78 17.43C67.92 14.61 69.69 12.31 71.95 10.76C74.01 9.34 76.47 8.53 79.22 8.51C79.68 8.5 80.15 8.52 80.63 8.56C82.18 8.72 83.73 8.81 85.28 8.74C86.26 8.69 87.88 8.41 88.83 8.12L87.35 7.7C86.66 7.76 85.97 7.78 85.28 7.74C83.78 7.68 82.28 7.45 80.8 7.17C80.68 7.15 80.55 7.13 80.43 7.11C76.23 6.48 72.35 7.54 69.22 9.85C67.29 11.27 65.64 13.18 64.38 15.45C64.31 15.57 64.24 15.69 64.18 15.81C64.08 16 63.98 16.19 63.88 16.39C63.75 16.64 63.63 16.89 63.53 17.15C63.09 18.21 62.85 19.33 62.79 20.47C62.79 20.48 62.79 20.49 62.79 20.5C62.78 20.67 62.78 20.84 62.78 21.01C62.78 21.75 62.83 22.5 62.94 23.23C63.35 26.15 64.56 28.91 66.03 31.49C66.53 32.37 67.06 33.22 67.6 34.05L67.76 34.29C68.72 35.87 69.41 37.6 69.79 39.41C69.9 39.93 69.99 40.45 70.05 40.97C69.63 40.73 69.21 40.48 68.8 40.22C67.16 39.2 65.59 38.08 64.08 36.87C63.02 36.02 62.03 35.08 61.14 34.05C60.07 32.83 59.16 31.48 58.42 30.04C58.36 29.93 58.3 29.81 58.24 29.7C57.43 28.04 56.89 26.27 56.63 24.44C56.56 23.98 56.52 23.5 56.49 23.02C56.45 22.36 56.45 21.69 56.48 21.03C56.48 20.91 56.49 20.8 56.5 20.68C56.52 20.48 56.54 20.28 56.56 20.08C56.61 19.58 56.69 19.08 56.79 18.59C56.93 17.85 57.12 17.13 57.36 16.41C58.28 13.7 59.88 11.28 62.15 9.14C63.24 8.11 64.42 7.18 65.68 6.38C68.11 4.82 70.93 3.6 74.14 2.72C76.68 1.98 79.28 1.49 81.92 1.27C84.25 1.07 86.59 1.05 88.92 1.22L88.98 1.22C91.35 1.35 93.71 1.67 96.04 2.16C96.36 2.22 96.69 2.3 97.01 2.38C98.87 2.81 100.7 3.36 102.48 4.03C102.64 4.09 102.8 4.15 102.95 4.21C107.38 5.92 110.98 8.24 113.77 11.17L100.16 16.31C97.66 14.31 94.31 12.96 90.1 12.24C85.88 11.53 82.12 11.79 78.8 13.04C75.5 14.29 73.95 16.43 74.14 19.47L74.14 19.52C74.19 20.24 74.47 20.97 74.98 21.72C75.88 23.03 77.49 24.39 79.83 25.81C82.13 27.2 85.12 28.64 88.81 30.12L89.07 30.23L90.42 30.77L91.49 31.3C94.02 32.24 96.29 33.16 98.31 34.05C98.74 34.24 99.17 34.43 99.58 34.62C100.54 35.07 101.51 35.56 102.49 36.09C102.66 36.06 102.82 36.04 102.98 36.01L103.17 35.97L103.2 35.97C103.25 35.96 103.31 35.95 103.36 35.94L103.43 35.92L103.48 35.91L103.59 35.89L103.71 35.86C103.83 35.84 103.95 35.81 104.06 35.79L104.12 35.77L104.27 35.74L104.41 35.7C104.43 35.7 104.45 35.69 104.47 35.69L104.61 35.65L104.61 35.65L104.77 35.61C104.84 35.59 104.9 35.57 104.97 35.55L105.14 35.5L105.21 35.48L105.23 35.47L105.32 35.44L105.47 35.39C105.5 35.38 105.53 35.37 105.55 35.36L105.65 35.33C105.69 35.32 105.73 35.3 105.77 35.29C105.96 35.22 106.14 35.14 106.31 35.07L106.33 35.06L106.37 35.04L106.47 35L106.52 34.97L106.61 34.93L106.65 34.91C106.71 34.88 106.77 34.85 106.82 34.82L106.87 34.79C106.91 34.77 106.95 34.75 106.98 34.73L107.06 34.68C107.09 34.67 107.11 34.65 107.14 34.64C107.18 34.61 107.22 34.58 107.26 34.56L107.35 34.51L107.37 34.49L107.4 34.47L107.42 34.45C107.47 34.42 107.51 34.39 107.55 34.36C107.62 34.31 107.69 34.25 107.75 34.2L107.84 34.13L107.92 34.05C107.98 34 108.04 33.95 108.09 33.89C108.14 33.84 108.19 33.79 108.23 33.74L108.26 33.71L108.29 33.67C108.29 33.66 108.3 33.66 108.3 33.66L108.33 33.61L108.37 33.57L108.39 33.55C108.39 33.54 108.4 33.53 108.4 33.52C108.44 33.47 108.48 33.41 108.52 33.36C108.53 33.34 108.55 33.32 108.56 33.3C108.56 33.29 108.56 33.29 108.56 33.29L108.59 33.24C108.59 33.24 108.59 33.23 108.59 33.23C108.61 33.2 108.63 33.16 108.65 33.13C108.67 33.1 108.68 33.08 108.69 33.05C108.72 33 108.75 32.95 108.77 32.89C108.77 32.88 108.78 32.88 108.78 32.87C108.84 32.74 108.89 32.6 108.93 32.47L108.93 32.46C108.94 32.43 108.95 32.41 108.95 32.38C108.96 32.36 108.96 32.34 108.97 32.32C108.98 32.27 108.99 32.22 109 32.17C109.02 32.13 109.02 32.08 109.03 32.04C109.03 32.02 109.04 32 109.04 31.98C109.05 31.94 109.05 31.91 109.06 31.88C109.06 31.85 109.07 31.79 109.08 31.75C109.08 31.71 109.09 31.66 109.09 31.62L109.09 31.58C109.09 31.58 109.09 31.57 109.09 31.56C109.1 31.51 109.1 31.46 109.1 31.4C109.1 31.39 109.1 31.38 109.1 31.37C109.1 31.33 109.1 31.29 109.1 31.25C109.1 31.24 109.1 31.23 109.1 31.22C109.1 31.2 109.1 31.19 109.11 31.17L109.12 31.12C109.12 31.09 109.13 31.07 109.14 31.04C109.14 31.04 109.14 31.03 109.14 31.03C109.14 31.03 109.14 31.03 109.14 31.03C109.14 31.01 109.15 30.99 109.15 30.98C109.16 30.96 109.16 30.95 109.17 30.94L109.18 30.93C109.19 30.9 109.21 30.86 109.23 30.83C109.26 30.79 109.29 30.76 109.33 30.72C109.34 30.71 109.35 30.71 109.36 30.7L109.38 30.67C109.4 30.66 109.42 30.65 109.44 30.63C109.48 30.61 109.52 30.58 109.57 30.57C109.59 30.56 109.61 30.55 109.64 30.54L109.64 30.54L109.65 30.54C109.66 30.54 109.67 30.54 109.68 30.54L109.69 30.54L109.71 30.53L109.73 30.53C109.75 30.53 109.76 30.52 109.77 30.52L109.79 30.52C109.81 30.52 109.82 30.52 109.84 30.52L109.85 30.52L109.89 30.52L109.9 30.52L109.93 30.52L109.97 30.53L110.02 30.54L110.03 30.54L110.04 30.54C110.06 30.55 110.07 30.55 110.08 30.55L110.11 30.56L110.13 30.57L110.14 30.58L110.15 30.58L110.18 30.59L110.25 30.63L110.33 30.68L110.41 30.73L110.42 30.73C110.43 30.74 110.44 30.74 110.44 30.75L110.47 30.77L110.53 30.81L110.58 30.85L110.58 30.86C110.61 30.88 110.65 30.91 110.68 30.95L110.69 30.96C110.72 30.99 110.75 31.01 110.77 31.04C110.8 31.07 110.82 31.1 110.85 31.13C110.87 31.16 110.89 31.18 110.91 31.2L110.96 31.27L110.97 31.28L110.99 31.32L111.01 31.34L111.06 31.42L111.1 31.48C111.11 31.5 111.12 31.51 111.13 31.53C111.14 31.55 111.15 31.57 111.16 31.58L111.18 31.63L111.2 31.67L111.24 31.74C111.24 31.75 111.25 31.76 111.25 31.77C111.26 31.79 111.27 31.82 111.28 31.84C111.29 31.86 111.29 31.87 111.3 31.89C111.34 31.98 111.37 32.07 111.4 32.17C111.41 32.21 111.42 32.25 111.43 32.29C111.44 32.32 111.45 32.36 111.46 32.4L111.48 32.46C111.48 32.48 111.49 32.5 111.49 32.52L111.51 32.61C111.51 32.64 111.52 32.67 111.52 32.71C111.53 32.71 111.53 32.72 111.52 32.73C111.52 32.76 111.53 32.78 111.54 32.81C111.54 32.82 111.54 32.83 111.54 32.84C111.54 32.87 111.55 32.9 111.55 32.93C111.56 32.95 111.56 32.98 111.56 33.01C111.57 33.04 111.57 33.07 111.57 33.11C111.58 33.14 111.58 33.18 111.58 33.21C111.58 33.21 111.54 35.07 110.16 37.3C110.16 37.3 108.55 39.43 111.57 42.51C111.63 42.57 111.69 42.63 111.76 42.69L111.81 42.75L111.9 42.84L111.9 42.84C112.07 43.01 112.23 43.18 112.38 43.35C113.21 44.26 113.94 45.26 114.57 46.33C115.08 47.21 115.53 48.13 115.91 49.08C116.84 51.29 117.23 53.65 117.09 56.14Z" fill="url(#paint_linear_154_18_2)" fill-opacity="0.100000" fill-rule="nonzero"/>
	<path id="Vector" d="M111.81 42.7C111.75 42.64 111.68 42.57 111.62 42.51C111.69 42.57 111.75 42.64 111.81 42.7Z" fill="url(#paint_linear_154_19_0)" fill-opacity="1.000000" fill-rule="nonzero"/>
	<g opacity="0.100000">
		<path id="Vector" d="M70.05 40.97C69.63 40.73 69.21 40.48 68.8 40.22C69.11 39.93 69.44 39.66 69.79 39.41C69.9 39.93 69.99 40.45 70.05 40.97Z" fill="#E30613" fill-opacity="1.000000" fill-rule="nonzero"/>
	</g>
	<path id="Vector" d="M82.08 21.97L74.99 34.05L91.39 34.05L86.52 26L85.48 27.72L82.08 21.97Z" fill="url(#paint_linear_154_21_0)" fill-opacity="1.000000" fill-rule="nonzero"/>
	<path id="Vector" d="M82.08 21.97L74.99 34.05L91.39 34.05L86.52 26L85.48 27.72L82.08 21.97Z" fill="url(#paint_linear_154_21_1)" fill-opacity="0.300000" fill-rule="nonzero"/>
	<path id="Vector" d="M67.6 34.05L61.13 34.05C60.07 32.83 59.15 31.48 58.41 30.04L59.12 28.98L59.83 27.9L62.1 24.5L62.34 24.12L62.93 23.23C63.35 26.15 64.56 28.91 66.03 31.49C66.53 32.37 67.06 33.22 67.6 34.05Z" fill="url(#paint_linear_154_22_0)" fill-opacity="1.000000" fill-rule="nonzero"/>
	<path id="Vector" d="M67.6 34.05L61.13 34.05C60.07 32.83 59.15 31.48 58.41 30.04L59.12 28.98L59.83 27.9L62.1 24.5L62.34 24.12L62.93 23.23C63.35 26.15 64.56 28.91 66.03 31.49C66.53 32.37 67.06 33.22 67.6 34.05Z" fill="url(#paint_linear_154_22_1)" fill-opacity="0.300000" fill-rule="nonzero"/>
	<path id="Vector" d="M79.95 34.05L73.06 34.05L72.96 33.88C72.54 33.13 72.07 32.41 71.57 31.72C71.07 31.05 70.64 30.55 70.18 29.91C69.28 28.65 68.32 27.17 67.57 25.6C67.45 25.36 67.34 25.12 67.24 24.87C66.99 24.3 66.79 23.72 66.61 23.13C66.56 22.94 66.51 22.75 66.46 22.56C66.35 22.1 66.27 21.62 66.23 21.14C66.2 20.87 66.19 20.59 66.19 20.32C66.18 19.46 66.33 18.6 66.63 17.8C66.68 17.67 66.73 17.55 66.78 17.43L67.85 15.82L69.9 18.9L69.98 19.04L70.85 20.33L71.51 21.32L77.32 30.08L79.95 34.05Z" fill="url(#paint_linear_154_23_0)" fill-opacity="1.000000" fill-rule="nonzero"/>
	<path id="Vector" d="M103.51 3.73L102.49 4.04L88.44 8.26C88.3 8.3 88.16 8.28 88.04 8.19L87.35 7.7L85.01 6.03C84.98 6 84.96 5.98 84.94 5.94C84.93 5.91 84.92 5.87 84.93 5.83C84.93 5.79 84.95 5.76 84.98 5.73C85 5.7 85.03 5.68 85.07 5.67C85.61 5.51 86.69 5.36 87.96 6.16C89.77 7.29 94.07 4.98 94.56 4.54L94.05 4.58C93.66 4.61 93.28 4.5 92.97 4.26L88.98 1.22L88.34 0.74C88.32 0.72 88.3 0.69 88.29 0.67C88.28 0.64 88.27 0.61 88.28 0.58C88.28 0.55 88.29 0.52 88.31 0.49C88.33 0.47 88.35 0.45 88.38 0.44C89.04 0.16 90.84 -0.42 92.67 0.47C94.61 1.43 95.74 2 96.04 2.16L96.12 2.2C96.12 2.2 96.48 2.29 97 2.37C97.79 2.5 98.93 2.62 99.84 2.42C101.37 2.1 105.15 1.17 105.15 1.17C105.15 1.17 106.98 0.82 107.25 1.33C107.52 1.84 107.19 2.75 103.51 3.73Z" fill="url(#paint_linear_154_24_0)" fill-opacity="1.000000" fill-rule="nonzero"/>
	<path id="Vector" d="M96.79 6.62L100 5.26C100.02 5.25 100.04 5.25 100.05 5.25C100.07 5.25 100.09 5.26 100.11 5.27C100.12 5.28 100.14 5.3 100.14 5.31C100.15 5.33 100.16 5.35 100.15 5.37C100.13 5.87 99.93 7.34 98.64 8.13C98.59 8.17 98.52 8.18 98.46 8.18C98.39 8.17 98.33 8.15 98.28 8.11L96.76 6.85C96.74 6.84 96.72 6.82 96.71 6.79C96.71 6.77 96.7 6.75 96.71 6.72C96.71 6.7 96.72 6.68 96.73 6.66C96.75 6.64 96.77 6.63 96.79 6.62Z" fill="url(#paint_linear_154_25_0)" fill-opacity="1.000000" fill-rule="nonzero"/>
	<path id="Vector" d="M50.5 57.55C51.88 57.5 64.32 56.93 71.2 51.67C71.21 51.66 71.23 51.66 71.24 51.65C71.25 51.65 71.27 51.66 71.28 51.66C71.29 51.67 71.3 51.68 71.31 51.69C71.32 51.7 71.32 51.71 71.32 51.72C71.34 52.16 71.36 53.53 70.95 54.65C70.85 54.93 70.66 55.18 70.42 55.36C68.9 56.44 62.39 60.79 54.04 61.83C53.69 61.87 53.33 61.83 53 61.71C52.67 61.58 52.38 61.37 52.15 61.11C51.3 60.12 50.7 58.94 50.4 57.67C50.4 57.66 50.4 57.64 50.4 57.63C50.41 57.61 50.41 57.6 50.42 57.59C50.43 57.58 50.44 57.57 50.46 57.56C50.47 57.55 50.49 57.55 50.5 57.55Z" fill="url(#paint_linear_154_26_0)" fill-opacity="1.000000" fill-rule="nonzero"/>
	<path id="Vector" d="M50.5 57.55C51.88 57.5 64.32 56.93 71.2 51.67C71.21 51.66 71.23 51.66 71.24 51.65C71.25 51.65 71.27 51.66 71.28 51.66C71.29 51.67 71.3 51.68 71.31 51.69C71.32 51.7 71.32 51.71 71.32 51.72C71.34 52.16 71.36 53.53 70.95 54.65C70.85 54.93 70.66 55.18 70.42 55.36C68.9 56.44 62.39 60.79 54.04 61.83C53.69 61.87 53.33 61.83 53 61.71C52.67 61.58 52.38 61.37 52.15 61.11C51.3 60.12 50.7 58.94 50.4 57.67C50.4 57.66 50.4 57.64 50.4 57.63C50.41 57.61 50.41 57.6 50.42 57.59C50.43 57.58 50.44 57.57 50.46 57.56C50.47 57.55 50.49 57.55 50.5 57.55Z" fill="url(#paint_linear_154_26_1)" fill-opacity="1.000000" fill-rule="nonzero"/>
	<path id="Vector" d="M50.5 57.55C51.88 57.5 64.32 56.93 71.2 51.67C71.21 51.66 71.23 51.66 71.24 51.65C71.25 51.65 71.27 51.66 71.28 51.66C71.29 51.67 71.3 51.68 71.31 51.69C71.32 51.7 71.32 51.71 71.32 51.72C71.34 52.16 71.36 53.53 70.95 54.65C70.85 54.93 70.66 55.18 70.42 55.36C68.9 56.44 62.39 60.79 54.04 61.83C53.69 61.87 53.33 61.83 53 61.71C52.67 61.58 52.38 61.37 52.15 61.11C51.3 60.12 50.7 58.94 50.4 57.67C50.4 57.66 50.4 57.64 50.4 57.63C50.41 57.61 50.41 57.6 50.42 57.59C50.43 57.58 50.44 57.57 50.46 57.56C50.47 57.55 50.49 57.55 50.5 57.55Z" fill="url(#paint_linear_154_26_2)" fill-opacity="1.000000" fill-rule="nonzero"/>
	<path id="Vector" d="M50.5 57.55C51.88 57.5 64.32 56.93 71.2 51.67C71.21 51.66 71.23 51.66 71.24 51.65C71.25 51.65 71.27 51.66 71.28 51.66C71.29 51.67 71.3 51.68 71.31 51.69C71.32 51.7 71.32 51.71 71.32 51.72C71.34 52.16 71.36 53.53 70.95 54.65C70.85 54.93 70.66 55.18 70.42 55.36C68.9 56.44 62.39 60.79 54.04 61.83C53.69 61.87 53.33 61.83 53 61.71C52.67 61.58 52.38 61.37 52.15 61.11C51.3 60.12 50.7 58.94 50.4 57.67C50.4 57.66 50.4 57.64 50.4 57.63C50.41 57.61 50.41 57.6 50.42 57.59C50.43 57.58 50.44 57.57 50.46 57.56C50.47 57.55 50.49 57.55 50.5 57.55Z" fill="url(#paint_linear_154_26_3)" fill-opacity="0.200000" fill-rule="nonzero"/>
	<path id="Vector" d="M57.66 56.75C57.66 56.75 55.34 54.12 51.99 57.46C51.99 57.46 59.41 44.64 47.65 43.59C47.65 43.59 63.41 41.28 57.66 56.75Z" fill="url(#paint_linear_154_27_0)" fill-opacity="1.000000" fill-rule="nonzero"/>
	<path id="Vector" d="M57.66 56.75C57.66 56.75 55.34 54.12 51.99 57.46C51.99 57.46 59.41 44.64 47.65 43.59C47.65 43.59 63.41 41.28 57.66 56.75Z" fill="url(#paint_linear_154_27_1)" fill-opacity="1.000000" fill-rule="nonzero"/>
	<path id="Vector" d="M57.66 56.75C57.66 56.75 55.34 54.12 51.99 57.46C51.99 57.46 59.41 44.64 47.65 43.59C47.65 43.59 63.41 41.28 57.66 56.75Z" fill="url(#paint_linear_154_27_2)" fill-opacity="0.200000" fill-rule="nonzero"/>
	<path id="Vector" d="M69.51 52.81C69.51 52.81 62.62 50.51 57.66 56.75C63.41 41.28 47.65 43.59 47.65 43.59C47.65 43.59 69.03 39.05 69.51 52.81Z" fill="url(#paint_linear_154_28_0)" fill-opacity="1.000000" fill-rule="nonzero"/>
	<path id="Vector" d="M69.51 52.81C69.51 52.81 62.62 50.51 57.66 56.75C63.41 41.28 47.65 43.59 47.65 43.59C47.65 43.59 69.03 39.05 69.51 52.81Z" fill="url(#paint_linear_154_28_1)" fill-opacity="1.000000" fill-rule="nonzero"/>
	<path id="Vector" d="M69.79 39.41C69.9 39.93 69.99 40.45 70.05 40.98C69.63 40.73 69.21 40.48 68.8 40.22C67.16 39.2 65.58 38.09 64.08 36.88C63.01 36.03 62.03 35.08 61.13 34.06L67.6 34.06L67.75 34.3C68.72 35.87 69.4 37.6 69.79 39.41Z" fill="url(#paint_linear_154_29_0)" fill-opacity="1.000000" fill-rule="nonzero"/>
	<path id="Vector" d="M103.72 35.86L97.82 42.29L85.79 43.87L78.2 44.86C77.92 44.75 77.64 44.64 77.36 44.53L77.06 44.4C76.94 44.35 76.81 44.3 76.69 44.25C76.37 44.11 76.06 43.98 75.75 43.85C75.68 41.88 75.34 39.93 74.76 38.05C74.71 37.9 74.67 37.75 74.62 37.6C74.21 36.37 73.69 35.18 73.06 34.05L98.31 34.05C98.75 34.24 99.17 34.43 99.58 34.62C100.55 35.07 101.52 35.55 102.5 36.09C102.66 36.06 102.83 36.03 102.99 36L103.18 35.97L103.2 35.96C103.26 35.96 103.31 35.95 103.36 35.93L103.43 35.92L103.48 35.91L103.6 35.89L103.72 35.86Z" fill="url(#paint_linear_154_30_0)" fill-opacity="1.000000" fill-rule="nonzero"/>
	<path id="Vector" d="M71.95 10.75C74.01 9.33 76.47 8.53 79.22 8.5C77.62 10.02 75.49 10.86 73.28 10.86C72.84 10.86 72.39 10.82 71.95 10.75Z" fill="url(#paint_linear_154_31_0)" fill-opacity="1.000000" fill-rule="nonzero"/>
	<path id="Vector" d="M81.96 2.18C81.97 3.94 81.43 5.66 80.43 7.11C76.23 6.48 72.35 7.54 69.22 9.85C67.73 9.06 66.5 7.85 65.68 6.37C68.11 4.82 70.93 3.6 74.14 2.71C76.68 1.98 79.28 1.49 81.92 1.27C81.95 1.57 81.96 1.87 81.96 2.18Z" fill="url(#paint_linear_154_32_0)" fill-opacity="1.000000" fill-rule="nonzero"/>
	<path id="Vector" d="M54.86 20.37C54.86 20.37 58.8 30.96 63.67 34.05L65.97 34.05C65.97 34.05 62.22 32.75 54.86 20.37Z" fill="url(#paint_linear_154_33_0)" fill-opacity="1.000000" fill-rule="nonzero"/>
	<path id="Vector" d="M54.86 20.37C54.86 20.37 52.82 21.41 50.42 25.38C50.14 25.85 50 26.39 50 26.94C50.01 28.28 50.14 30.88 51.01 32.27C51 32.27 50.95 24.83 54.86 20.37Z" fill="url(#paint_linear_154_34_0)" fill-opacity="1.000000" fill-rule="nonzero"/>
	<path id="Vector" d="M54.86 20.37C54.86 20.37 48.87 18.42 45.43 21.83C45.43 21.83 46.75 19.22 48.56 18.01C48.63 17.96 48.7 17.93 48.78 17.92C48.86 17.9 48.94 17.9 49.02 17.92C49.88 18.09 52.81 18.78 54.86 20.37Z" fill="url(#paint_linear_154_35_0)" fill-opacity="1.000000" fill-rule="nonzero"/>
	<path id="Vector" d="M54.86 20.37C54.86 20.37 52.33 15.69 54.36 14.34C54.46 14.27 54.57 14.24 54.69 14.23C54.8 14.22 54.92 14.24 55.02 14.29C55.4 14.47 56.05 14.78 56.42 15.1C56.42 15.1 54.06 14.53 54.86 20.37Z" fill="url(#paint_linear_154_36_0)" fill-opacity="1.000000" fill-rule="nonzero"/>
	<path id="Vector" d="M64.18 15.81C64.08 16 63.97 16.19 63.88 16.39C61.11 15.79 58.48 17.27 56.79 18.59C56.09 19.12 55.45 19.72 54.86 20.36C55.67 18.63 56.55 17.35 57.36 16.41C58.46 15.14 59.45 14.49 60.06 14.18C60.43 13.98 60.86 13.9 61.29 13.94C63.01 14.14 63.82 15.11 64.18 15.81Z" fill="url(#paint_linear_154_37_0)" fill-opacity="1.000000" fill-rule="nonzero"/>
	<path id="Vector" d="M64.18 15.81C64.08 16 63.97 16.19 63.88 16.39C61.11 15.79 58.48 17.27 56.79 18.59C56.09 19.12 55.45 19.72 54.86 20.36C55.67 18.63 56.55 17.35 57.36 16.41C58.46 15.14 59.45 14.49 60.06 14.18C60.43 13.98 60.86 13.9 61.29 13.94C63.01 14.14 63.82 15.11 64.18 15.81Z" fill="url(#paint_linear_154_37_1)" fill-opacity="0.500000" fill-rule="nonzero"/>
	<path id="Vector" d="M54.86 20.37C54.86 20.37 60.57 20.86 62.47 25.24C62.47 25.24 62.46 23.19 61.11 20.88C60.99 20.67 60.81 20.48 60.61 20.34C60.4 20.2 60.17 20.11 59.92 20.08C58.99 19.94 57.26 19.85 54.86 20.37Z" fill="url(#paint_linear_154_38_0)" fill-opacity="1.000000" fill-rule="nonzero"/>
	<path id="Vector" d="M67.57 25.6C67.46 25.36 67.35 25.12 67.24 24.87C67.53 24.13 67.88 23.35 68.3 22.52C68 23.53 67.76 24.56 67.57 25.6Z" fill="url(#paint_linear_154_39_0)" fill-opacity="1.000000" fill-rule="nonzero"/>
	<path id="Vector" d="M66.03 31.49C66.53 32.37 67.06 33.22 67.6 34.05L66.64 34.05C66.64 34.05 66.14 33.2 66.03 31.49Z" fill="url(#paint_linear_154_40_0)" fill-opacity="1.000000" fill-rule="nonzero"/>
	<path id="Vector" d="M68.3 22.51C68.3 22.51 70.52 19.4 74.2 19.47C74.33 19.47 74.46 19.5 74.58 19.56C74.71 19.62 74.81 19.7 74.9 19.8C75.73 20.73 76.37 21.8 76.79 22.97C76.79 22.97 73.79 19.38 68.3 22.51Z" fill="url(#paint_linear_154_41_0)" fill-opacity="1.000000" fill-rule="nonzero"/>
	<path id="Vector" d="M68.3 22.51C68.3 22.51 73.31 25.17 74.06 28.28C74.06 28.28 74.13 26.19 73.5 24.47C73.41 24.23 73.23 24.03 73 23.92C72.39 23.64 70.96 23.06 68.3 22.51Z" fill="url(#paint_linear_154_42_0)" fill-opacity="1.000000" fill-rule="nonzero"/>
	<path id="Vector" d="M68.3 22.51C68.3 22.51 67.51 19.32 70.27 18.99C70.27 18.99 69.09 18.62 67.87 18.96C67.77 18.99 67.68 19.05 67.61 19.14C67.54 19.22 67.51 19.32 67.5 19.43C67.5 19.94 67.6 21 68.3 22.51Z" fill="url(#paint_linear_154_43_0)" fill-opacity="1.000000" fill-rule="nonzero"/>
	<path id="Vector" d="M68.3 22.51C67.74 21.88 67.02 21.41 66.23 21.14C66.2 20.87 66.19 20.59 66.19 20.32C67.44 21.13 68.26 22.45 68.3 22.51Z" fill="url(#paint_linear_154_44_0)" fill-opacity="1.000000" fill-rule="nonzero"/>
	<path id="Vector" d="M68.3 22.51C67.71 22.64 67.15 22.85 66.61 23.13C66.56 22.94 66.51 22.75 66.46 22.56C67.61 22.26 68.3 22.51 68.3 22.51Z" fill="url(#paint_linear_154_45_0)" fill-opacity="1.000000" fill-rule="nonzero"/>
	<path id="Vector" d="M117.09 56.14C116.8 61.07 114.66 65.24 110.67 68.67C109.63 69.58 108.52 70.4 107.35 71.13C103.73 73.38 99.33 74.88 94.17 75.63C87.73 76.56 81.17 76.16 74.89 74.45C71.67 73.56 68.82 72.45 66.35 71.1C64.45 70.08 62.68 68.84 61.09 67.39L61.07 67.37C59.38 65.99 55.68 64.47 54.04 63.83C54.01 63.82 53.98 63.79 53.97 63.77C53.95 63.74 53.95 63.71 53.95 63.68C53.95 63.65 53.97 63.62 53.99 63.6C54.02 63.58 54.04 63.57 54.08 63.56C54.39 63.54 54.71 63.49 55.02 63.4C55.76 63.17 56.42 62.73 56.91 62.12C56.97 62.04 57.03 61.96 57.09 61.88C57.25 61.66 57.42 61.44 57.59 61.24C59.75 58.78 63.12 58.13 66.73 58.09C70.9 58.05 72.85 56.87 72.85 56.87C72.94 57 73.05 57.12 73.18 57.22C74.83 59.22 76.87 60.86 79.18 62.04C81.53 63.25 83.87 63.96 86.19 64.18C88.39 64.4 90.61 64.31 92.78 63.91C94.85 63.52 96.53 62.71 97.81 61.5C99.1 60.29 99.78 58.86 99.85 57.22C99.85 56.44 99.66 55.66 99.31 54.97C98.95 54.25 98.36 53.58 97.54 52.93C96.81 52.35 96.04 51.81 95.24 51.33C94.61 50.97 93.97 50.65 93.3 50.37C92.9 50.2 92.46 50.02 91.98 49.83C90.51 49.26 89.33 48.81 88.44 48.49C87.55 48.17 86.21 47.72 84.43 47.15L84.25 47.09C83.65 46.9 83.07 46.67 82.5 46.4C82.15 46.29 81.81 46.18 81.46 46.06L81.12 45.94L80.85 45.84L80.45 45.7C80.05 45.56 79.65 45.41 79.25 45.26C79.11 45.21 78.97 45.16 78.83 45.1L78.63 45.03L78.28 44.89L78.21 44.86C77.93 44.75 77.65 44.64 77.37 44.53L77.07 44.41C76.94 44.35 76.82 44.3 76.69 44.25C76.38 44.12 76.07 43.98 75.76 43.85C75.68 41.88 75.35 39.93 74.76 38.05C74.72 37.9 74.67 37.76 74.62 37.61C76.66 37.29 79.25 37.3 82.55 37.92C86.07 38.58 88.75 38.93 90.78 39.1C95.61 39.51 96.78 38.88 96.78 38.88C96.78 38.88 100.33 37.97 102.99 36.01L103.18 35.97L103.21 35.97C103.26 35.96 103.31 35.95 103.37 35.94L103.43 35.92L103.49 35.91L103.6 35.89L103.72 35.87C103.96 35.82 104.19 35.76 104.4 35.71L104.47 35.69L104.48 35.69L104.52 35.68L104.62 35.65C104.86 35.59 105.1 35.52 105.32 35.45L105.47 35.39L105.56 35.36C105.59 35.35 105.62 35.34 105.66 35.33C105.69 35.32 105.74 35.3 105.77 35.29C105.93 35.23 106.08 35.17 106.23 35.11L106.31 35.07L106.33 35.06L106.37 35.04C106.61 34.93 106.84 34.82 107.06 34.68C107.09 34.67 107.11 34.65 107.14 34.64C107.18 34.61 107.22 34.59 107.26 34.56L107.35 34.5L107.42 34.45C107.46 34.42 107.5 34.39 107.54 34.36L107.64 34.29C107.68 34.26 107.71 34.24 107.74 34.21L107.75 34.2L107.83 34.13C107.89 34.08 107.95 34.03 108.01 33.97L108.08 33.9L108.09 33.89C108.13 33.84 108.19 33.79 108.23 33.74L108.25 33.71L108.29 33.67C108.29 33.66 108.29 33.66 108.3 33.66L108.31 33.64L108.36 33.58C108.44 33.47 108.52 33.35 108.6 33.23C108.6 33.22 108.61 33.22 108.61 33.21C108.67 33.11 108.72 33 108.77 32.89C108.78 32.88 108.78 32.88 108.78 32.87L108.78 32.87C108.79 32.86 108.79 32.85 108.79 32.85C108.85 32.72 108.89 32.6 108.93 32.47L108.93 32.46C108.94 32.43 108.95 32.41 108.95 32.38C108.96 32.36 108.97 32.34 108.97 32.32C108.98 32.27 109 32.22 109.01 32.17C109.02 32.12 109.03 32.08 109.04 32.02C109.07 31.83 109.09 31.65 109.1 31.46C109.1 31.44 109.1 31.42 109.1 31.4C109.1 31.35 109.1 31.3 109.11 31.25C109.11 31.24 109.11 31.23 109.11 31.22C109.11 31.2 109.11 31.18 109.11 31.16L109.11 31.14L109.12 31.12C109.12 31.09 109.13 31.06 109.14 31.04C109.14 31.03 109.14 31.03 109.14 31.03C109.14 31.03 109.14 31.02 109.14 31.02C109.14 31.01 109.15 30.99 109.16 30.98C109.16 30.96 109.17 30.95 109.17 30.94L109.18 30.93C109.24 30.81 109.32 30.71 109.43 30.64C109.53 30.57 109.66 30.53 109.78 30.51C109.86 30.51 109.93 30.51 110 30.52L110.03 30.53L110.05 30.53C110.06 30.54 110.07 30.54 110.09 30.54L110.11 30.55C110.14 30.56 110.16 30.57 110.19 30.59L110.25 30.62L110.33 30.67L110.42 30.72L110.47 30.76C110.51 30.79 110.55 30.82 110.59 30.85L110.64 30.9L110.69 30.94L110.7 30.96C110.76 31.01 110.81 31.06 110.86 31.12C110.86 31.12 110.86 31.13 110.86 31.13C110.9 31.17 110.94 31.22 110.97 31.27L110.99 31.3L111 31.31L111.02 31.33L111.07 31.41C111.09 31.45 111.12 31.49 111.14 31.53C111.16 31.56 111.19 31.62 111.21 31.66C111.21 31.68 111.22 31.69 111.23 31.7L111.26 31.77C111.29 31.83 111.31 31.89 111.34 31.95C111.35 31.99 111.36 32.02 111.37 32.05C111.38 32.09 111.4 32.13 111.41 32.17C111.42 32.21 111.43 32.25 111.44 32.28C111.45 32.32 111.46 32.36 111.47 32.4C111.48 32.44 111.49 32.48 111.5 32.52L111.52 32.6C111.52 32.64 111.53 32.67 111.54 32.7C111.54 32.71 111.54 32.71 111.54 32.71C111.54 32.74 111.55 32.77 111.55 32.81C111.56 32.84 111.56 32.89 111.57 32.92C111.57 32.96 111.58 33.01 111.59 33.05C111.59 33.09 111.6 33.16 111.6 33.21C111.6 33.21 111.56 35.07 110.18 37.31C110.18 37.31 108.57 39.44 111.59 42.51C111.65 42.57 111.71 42.63 111.78 42.7L111.83 42.75L111.92 42.84L111.92 42.84C112.08 43.01 112.24 43.18 112.4 43.35C113.23 44.27 113.96 45.26 114.58 46.33C115.1 47.21 115.55 48.13 115.93 49.08C116.85 51.29 117.23 53.65 117.09 56.14Z" fill="url(#paint_linear_154_46_0)" fill-opacity="1.000000" fill-rule="nonzero"/>
	<path id="Vector" d="M117.09 56.14C116.8 61.07 114.66 65.24 110.67 68.67C109.63 69.58 108.52 70.4 107.35 71.13C103.73 73.38 99.33 74.88 94.17 75.63C87.73 76.56 81.17 76.16 74.89 74.45C71.67 73.56 68.82 72.45 66.35 71.1C64.45 70.08 62.68 68.84 61.09 67.39L61.07 67.37C59.38 65.99 55.68 64.47 54.04 63.83C54.01 63.82 53.98 63.79 53.97 63.77C53.95 63.74 53.95 63.71 53.95 63.68C53.95 63.65 53.97 63.62 53.99 63.6C54.02 63.58 54.04 63.57 54.08 63.56C54.39 63.54 54.71 63.49 55.02 63.4C55.76 63.17 56.42 62.73 56.91 62.12C56.97 62.04 57.03 61.96 57.09 61.88C57.25 61.66 57.42 61.44 57.59 61.24C59.75 58.78 63.12 58.13 66.73 58.09C70.9 58.05 72.85 56.87 72.85 56.87C72.94 57 73.05 57.12 73.18 57.22C74.83 59.22 76.87 60.86 79.18 62.04C81.53 63.25 83.87 63.96 86.19 64.18C88.39 64.4 90.61 64.31 92.78 63.91C94.85 63.51 96.53 62.71 97.81 61.5C99.1 60.29 99.78 58.86 99.85 57.22C99.85 56.44 99.66 55.66 99.31 54.97C98.95 54.25 98.36 53.58 97.54 52.93C96.81 52.35 96.04 51.81 95.24 51.33C94.61 50.97 93.97 50.65 93.3 50.37C92.9 50.2 92.46 50.02 91.98 49.83C90.51 49.26 89.33 48.81 88.44 48.49C87.55 48.17 86.21 47.72 84.43 47.15L84.25 47.09C84.25 47.09 86.93 36.35 102.5 36.09C107.7 35.26 109.07 33.51 109.12 31.24C109.12 31.12 109.15 30.99 109.22 30.88C109.28 30.77 109.37 30.68 109.48 30.61C109.59 30.55 109.72 30.51 109.84 30.5C109.97 30.5 110.1 30.53 110.21 30.59C110.83 30.9 111.49 31.62 111.64 33.21C111.64 33.21 111.59 35.07 110.21 37.3C110.21 37.3 108.6 39.44 111.62 42.51C111.69 42.57 111.75 42.63 111.81 42.7L111.86 42.75L111.95 42.84L111.95 42.84C112.12 43.01 112.28 43.18 112.43 43.35C113.26 44.26 113.99 45.26 114.62 46.33C115.13 47.21 115.58 48.13 115.96 49.08C116.86 51.29 117.23 53.65 117.09 56.14Z" fill="url(#paint_linear_154_47_0)" fill-opacity="1.000000" fill-rule="nonzero"/>
	<path id="Vector" d="M117.09 56.14C116.8 61.07 114.66 65.24 110.67 68.67C109.63 69.58 108.52 70.4 107.35 71.12C103.73 73.38 99.33 74.88 94.17 75.63C87.73 76.56 81.17 76.16 74.89 74.45C71.67 73.56 68.82 72.45 66.35 71.1C64.45 70.08 62.68 68.83 61.09 67.38L61.07 67.37C59.38 65.99 55.68 64.47 54.04 63.83C54.01 63.81 53.98 63.79 53.97 63.77C53.95 63.74 53.95 63.71 53.95 63.68C53.95 63.65 53.97 63.62 53.99 63.6C54.02 63.58 54.04 63.56 54.08 63.56C54.39 63.54 54.71 63.49 55.02 63.4C55.76 63.17 56.42 62.73 56.91 62.12C56.97 62.04 57.03 61.96 57.09 61.88C57.25 61.66 57.42 61.44 57.59 61.24C59.75 58.77 63.12 58.13 66.73 58.09C70.9 58.05 72.85 56.87 72.85 56.87C72.94 57 73.05 57.12 73.18 57.22C74.83 59.22 76.87 60.86 79.18 62.03C81.53 63.25 83.87 63.96 86.19 64.17C88.39 64.4 90.61 64.3 92.78 63.91C94.85 63.51 96.53 62.71 97.81 61.5C99.1 60.29 99.78 58.86 99.85 57.22C99.85 56.43 99.66 55.66 99.31 54.96C98.95 54.25 98.36 53.57 97.54 52.93C96.81 52.35 96.04 51.81 95.24 51.33C94.61 50.96 93.97 50.65 93.3 50.37C95.21 50.22 97.03 49.54 98.57 48.4C102.02 45.87 107.15 46.97 109.37 47.53C111.18 47.98 113.1 47.68 114.62 46.33C115.14 47.21 115.59 48.13 115.97 49.08C116.86 51.29 117.23 53.65 117.09 56.14Z" fill="url(#paint_linear_154_48_0)" fill-opacity="1.000000" fill-rule="nonzero"/>
	<path id="Vector" d="M107.35 71.12C103.73 73.37 99.33 74.88 94.17 75.63C87.73 76.56 81.17 76.16 74.89 74.45C71.67 73.56 68.82 72.45 66.35 71.1C68.71 70.34 72.91 69.45 78.83 69.99C88.46 70.87 87.1 72.15 92.75 70.91C97.84 69.81 100.51 69.34 107.35 71.12Z" fill="url(#paint_linear_154_49_0)" fill-opacity="1.000000" fill-rule="nonzero"/>
	<path id="Vector" d="M208.48 141.97L208.48 177.99L192.28 177.99L192.28 102.94L205.47 102.94L238.72 149.15L238.72 102.94L254.81 102.94L254.81 177.99L234.43 177.99L208.48 141.97Z" fill="url(#paint_linear_154_52_0)" fill-opacity="1.000000" fill-rule="nonzero"/>
	<path id="Vector" d="M132.97 141.97L132.97 177.99L116.77 177.99L116.77 102.94L129.96 102.94L163.21 149.15L163.21 102.94L179.3 102.94L179.3 177.99L158.92 177.99L132.97 141.97Z" fill="url(#paint_linear_154_53_0)" fill-opacity="1.000000" fill-rule="nonzero"/>
	<path id="Vector" d="M96.98 104.72C96.98 105.71 96.42 106.51 95.72 106.51C95.02 106.51 94.45 105.71 94.45 104.72C94.45 103.74 95.02 102.94 95.72 102.94C96.42 102.94 96.98 103.74 96.98 104.72Z" fill="url(#paint_linear_154_55_0)" fill-opacity="1.000000" fill-rule="evenodd"/>
	<path id="Vector" d="M102.86 113.25L88.57 113.25C88.57 111.35 89.33 109.54 90.67 108.2C92.01 106.86 93.82 106.11 95.72 106.11C96.65 106.11 97.58 106.29 98.45 106.65C99.32 107.01 100.1 107.54 100.77 108.2C101.43 108.86 101.96 109.65 102.32 110.52C102.68 111.38 102.86 112.31 102.86 113.25Z" fill="url(#paint_linear_154_56_0)" fill-opacity="1.000000" fill-rule="nonzero"/>
	<path id="Vector" d="M88.44 113.25L102.99 113.25C103.44 113.25 103.81 113.61 103.81 114.07L103.81 114.35C103.81 114.8 103.44 115.16 102.99 115.16L88.44 115.16C87.99 115.16 87.62 114.8 87.62 114.35L87.62 114.07C87.62 113.61 87.99 113.25 88.44 113.25Z" fill="url(#paint_linear_154_57_0)" fill-opacity="1.000000" fill-rule="evenodd"/>
	<path id="Vector" d="M88.57 115.16L102.86 115.16L102.86 125.58L88.57 125.58L88.57 115.16Z" fill="url(#paint_linear_154_58_0)" fill-opacity="1.000000" fill-rule="evenodd"/>
	<path id="Vector" d="M103.81 177.94L87.62 177.94L87.86 165.17L88.03 155.62L88.31 140.03L88.57 125.58L102.86 125.58L103.12 140.03L103.32 150.89L103.58 165.17L103.81 177.94Z" fill="#FFFFFF" fill-opacity="1.000000" fill-rule="nonzero"/>
	<path id="Vector" d="M103.81 177.94L87.62 177.94L87.86 165.17L88.03 155.62L88.31 140.03L88.57 125.58L102.86 125.58L103.12 140.03L103.32 150.89L103.58 165.17L103.81 177.94Z" fill="url(#paint_linear_154_59_0)" fill-opacity="0.100000" fill-rule="nonzero"/>
	<path id="Vector" d="M103.12 140.03L88.31 140.03L88.57 125.58L102.86 125.58L103.12 140.03Z" fill="url(#paint_linear_154_60_0)" fill-opacity="1.000000" fill-rule="nonzero"/>
	<path id="Vector" d="M103.58 165.17L87.86 165.17L88.03 155.63L103.32 150.89L103.58 165.17Z" fill="url(#paint_linear_154_61_0)" fill-opacity="1.000000" fill-rule="nonzero"/>
	<path id="Intersect" d="M103.812 177.946L87.6292 177.946L87.7159 173.164L103.725 173.164L103.812 177.946Z" clip-rule="evenodd" fill="url(#paint_linear_154_62_0)" fill-opacity="1.000000" fill-rule="evenodd"/>
	<path id="Vector" d="M87.95 123.66L103.48 123.66C103.66 123.66 103.81 123.81 103.81 123.99L103.81 125.25C103.81 125.43 103.66 125.57 103.48 125.57L87.95 125.57C87.77 125.57 87.62 125.43 87.62 125.25L87.62 123.99C87.62 123.81 87.77 123.66 87.95 123.66Z" fill="url(#paint_linear_154_65_0)" fill-opacity="1.000000" fill-rule="evenodd"/>
	<path id="Rectangle 1481" d="M94.06 145.29C94.06 144.4 94.78 143.68 95.67 143.68C96.56 143.68 97.28 144.4 97.28 145.29L97.28 148.5L94.06 148.5L94.06 145.29Z" fill="url(#paint_linear_154_66_0)" fill-opacity="1.000000" fill-rule="evenodd"/>
	<path id="Rectangle 1482" d="M94.06 168.34C94.06 167.45 94.78 166.73 95.67 166.73C96.56 166.73 97.28 167.45 97.28 168.34L97.28 171.56L94.06 171.56L94.06 168.34Z" fill="url(#paint_linear_154_67_0)" fill-opacity="1.000000" fill-rule="evenodd"/>
	<path id="Intersect" d="M116.778 110.767L132.141 105.978L157.872 141.743L116.778 128.936L116.778 110.767ZM163.214 143.408L163.214 102.958L179.3 102.958L179.3 148.422L163.214 143.408Z" clip-rule="evenodd" fill="url(#paint_linear_154_68_0)" fill-opacity="1.000000" fill-rule="evenodd"/>
	<path id="Intersect" d="M208.481 157.518L192.287 152.471L192.287 102.959L205.478 102.959L238.724 149.169L238.724 102.959L254.81 102.959L254.81 171.957L222.911 162.015L208.481 141.985L208.481 157.518Z" clip-rule="evenodd" fill="url(#paint_linear_154_71_0)" fill-opacity="1.000000" fill-rule="evenodd"/>
</svg>
